<svg xmlns="http://www.w3.org/2000/svg" viewBox="0 0 179 204.44"><defs><style>.cls-1{fill:#ef4545;}.cls-2{fill:#343d47;}.cls-3{fill:#fff;}.cls-4{fill:#757e86;}.cls-5{fill:#1f2629;}</style></defs><title>Logo</title><g id="Layer_2" data-name="Layer 2"><g id="Layer_1-2" data-name="Layer 1"><path class="cls-1" d="M174.89,135.69c-.35-.71-.83-1.68-.95-2.05-.32-2.43-2.11-3.85-3.54-5a8.39,8.39,0,0,1-1.73-1.63,18.64,18.64,0,0,1-1.13-3,22,22,0,0,0-1.4-3.68c.51-6.62.09-11.42-1.26-14.64a7.75,7.75,0,0,0-3.43-4.06,146.38,146.38,0,0,1-15-17.08L157.71,65l2-3.46-2.26-1.31,1.37-2.37a6.21,6.21,0,0,0-1.21-7.57A15.49,15.49,0,0,0,154,47.62a16.71,16.71,0,0,0-4.14-1.81,8.32,8.32,0,0,0-2-.26,6,6,0,0,0-5.28,3l-1.37,2.38L139,49.57,137,53l-10.57,18.3a38.18,38.18,0,0,0-7.76-3.78v-.39c0-14-2.07-23.37-6.51-29.66-4.07-5.75-10.17-8.94-18.56-9.69C97.7,25.94,101.9,24,105.69,22l2.3-1.24,5.28-2.86-4.67-3.77L97.37,5,95.21,3.26,92.82,4.68l-1,.62c-1.55.92-3.19,1.8-4.87,2.65L83.47,6.34l-10.63-5L69.92,0,68,2.57l-.71.92a98.7,98.7,0,0,1-6.65,7.57c-6.81,7.25-14.53,15.47-13.19,27.1A20.94,20.94,0,0,0,57.56,53.9a30.55,30.55,0,0,0,3.23,3.45c-.28,3-.41,6.23-.41,9.82v.39a37.72,37.72,0,0,0-7.92,3.89L41.91,53.18l-2-3.47L37.65,51l-1.37-2.38a5.91,5.91,0,0,0-5.26-3,12.5,12.5,0,0,0-6,2,16.26,16.26,0,0,0-3.63,2.68C18.7,53.1,18.94,56.11,20,58l1.37,2.37L19.15,61.7l2,3.46L32.43,84.69A148.64,148.64,0,0,1,17.55,101.6a7.71,7.71,0,0,0-3.43,4.06c-1.35,3.22-1.77,8-1.26,14.64a22,22,0,0,0-1.4,3.68,17.72,17.72,0,0,1-1.14,3,8,8,0,0,1-1.72,1.63c-1.44,1.14-3.22,2.56-3.54,5-.12.37-.6,1.34-1,2.05-1.78,3.59-4.77,9.59-4,17.5a7.69,7.69,0,0,0,.17,1.33,29.86,29.86,0,0,0,2.32,7.71,27.81,27.81,0,0,0,5.5,8.54c2.52,3.34,6.07,7.5,9.84,10.15v9.82c0,4.32,4.13,7.45,9.81,7.45a10.8,10.8,0,0,0,8.06-3c2,.69,4,1.29,5.69,1.82a175.61,175.61,0,0,0,27.74,6.12,146.93,146.93,0,0,0,19.87,1.34,164.75,164.75,0,0,0,45.58-6.63c2.42-.7,5.38-1.58,8.46-2.65a10.81,10.81,0,0,0,8.06,3c5.68,0,9.81-3.13,9.81-7.45v-9.82a48,48,0,0,0,9.83-10.15,27.81,27.81,0,0,0,5.51-8.54,29.83,29.83,0,0,0,2.31-7.71,6.82,6.82,0,0,0,.17-1.33C179.67,145.28,176.68,139.28,174.89,135.69Zm0,17.28a3.42,3.42,0,0,1,0,.46l-.06.32h0a23.07,23.07,0,0,1-.71,3.26l0,.13c-.14.47-.3,1-.48,1.43,0,.12-.08.25-.13.37-.2.54-.42,1.08-.67,1.63s-.39.86-.59,1.27l-.16.3c-.15.3-.29.59-.44.87l-.14.25c-.16.28-.31.57-.47.83l-.1.17c-.17.28-.34.56-.51.82l-.06.09c-.19.28-.37.55-.56.81l0,0c-.2.27-.39.52-.59.76h0c-.2.25-.4.48-.6.7h0c-.21.22-.41.42-.61.61h0c-.52.7-1.14,1.49-1.82,2.33l0,0c-.4.48-.81,1-1.25,1.48l-.19.22c-.4.45-.81.91-1.23,1.35l-.41.43c-.39.4-.78.8-1.19,1.18l-.24.24-.56.5-.08.07a25.84,25.84,0,0,1-2.14,1.71l-.25.17-.66.43c-.26.16-.52.31-.78.44v12h0a2.3,2.3,0,0,1,0,.45l0,.13a2,2,0,0,1-.11.32.61.61,0,0,1,0,.12,1.19,1.19,0,0,1-.12.22,3.3,3.3,0,0,1-.36.51.48.48,0,0,0-.11.09,3.09,3.09,0,0,1-.47.4l-.23.15a4.54,4.54,0,0,1-.53.3l-.06,0-.12.05a7,7,0,0,1-.69.26h0a7,7,0,0,1-.85.22h-.08a7.93,7.93,0,0,1-.89.13h-.09c-.31,0-.63,0-1,0h0a9.8,9.8,0,0,1-1.47-.1h-.07a8.66,8.66,0,0,1-1.33-.29h0a4.09,4.09,0,0,1-.49-.18l-.25-.11-.2-.09a4.74,4.74,0,0,1-.92-.61l-.17-.14-.15-.14a3.17,3.17,0,0,1-.37-.51l-.12-.22s0-.08-.05-.13a2.81,2.81,0,0,1-.1-.31l0-.13a2.22,2.22,0,0,1-.05-.45h0v-.67c-2.9,1.13-5.86,2.12-8.84,3-1,.3-2,.59-3,.87-1.62.47-3.24.9-4.87,1.32l-1.38.35c-1.3.32-2.6.63-3.9.92l-1.13.25c-1.62.35-3.25.68-4.88,1l-1.14.2c-1.31.24-2.62.45-3.93.65l-1.43.22c-1.63.23-3.25.45-4.89.63h-.11c-1.65.19-3.3.33-5,.47l-1.43.1c-1.32.09-2.64.16-4,.22l-1.17.06c-1.66,0-3.31.09-5,.09h-.32l-1.08,0c-1,0-2,0-3.07,0l-1.64-.06c-1,0-2-.09-2.93-.15l-1.63-.1-3.12-.26-1.38-.13c-1.49-.16-3-.33-4.48-.53a173.29,173.29,0,0,1-27.11-6l-2.34-.73c-.72-.22-1.44-.46-2.15-.7l-.11,0c-1.52-.51-3-1-4.51-1.62v.66h0a2.3,2.3,0,0,1,0,.45l0,.13a2,2,0,0,1-.11.32s0,.08,0,.12a2.53,2.53,0,0,1-.13.22,3.3,3.3,0,0,1-.36.51l-.11.09a3.09,3.09,0,0,1-.47.4l-.23.15a4.54,4.54,0,0,1-.53.3l-.06,0-.12.05a7,7,0,0,1-.69.26h0a7,7,0,0,1-.85.22h-.08a7.93,7.93,0,0,1-.89.13h-.09c-.31,0-.63,0-.95,0h0a9.8,9.8,0,0,1-1.47-.1h-.06a8.54,8.54,0,0,1-1.34-.29h0a4.09,4.09,0,0,1-.49-.18l-.25-.11-.2-.09a4.74,4.74,0,0,1-.92-.61l-.17-.14-.15-.14a3.92,3.92,0,0,1-.37-.51l-.12-.22a1.12,1.12,0,0,0-.05-.13,2.81,2.81,0,0,1-.1-.31l0-.13a2.22,2.22,0,0,1-.05-.45h0v-12l-.2-.11c-.43-.24-.85-.5-1.27-.78l-.19-.13a23.88,23.88,0,0,1-2.2-1.76l0,0-.58-.52c-.52-.48-1-1-1.51-1.5l-.26-.27-.53-.57q-.39-.42-.75-.84l-.27-.3-.71-.83-.05-.07,0-.05-.39-.47,0,0c-.68-.85-1.3-1.64-1.82-2.34A15,15,0,0,1,9.31,166l0,0c-.19-.26-.38-.53-.56-.82l-.05-.07c-.18-.27-.35-.56-.53-.85l-.08-.14c-.17-.28-.33-.57-.49-.87L7.46,163c-.16-.3-.32-.62-.48-.94l-.12-.23c-.2-.41-.4-.83-.59-1.27S5.8,159.5,5.6,159c0-.12-.09-.25-.14-.37-.17-.48-.33-1-.47-1.43L5,157a23.07,23.07,0,0,1-.71-3.26h0a3,3,0,0,1-.06-.32,3.42,3.42,0,0,1,0-.46v0a21.5,21.5,0,0,1-.1-3.47H4c.27-5.62,2.64-9.92,4-12.73l.29-.61a1,1,0,0,1,.07-.15l.23-.53a.61.61,0,0,0,0-.12,5,5,0,0,0,.19-.54.49.49,0,0,0,0-.11c0-.17.08-.33.1-.48.18-1.65,3.52-2.87,4.82-5.26s1.72-5.6,2.81-7.19c.11-.16.21-.33.31-.51h0c-.05-.45-.08-.88-.11-1.31,0-.1,0-.2,0-.3,0-.34,0-.68-.07-1a1.77,1.77,0,0,1,0-.23c0-.39,0-.77-.06-1.14v-.19q0-.47,0-.9v-.26c0-.68,0-1.32,0-1.91a1.93,1.93,0,0,0,0-.24l0-.7a.86.86,0,0,0,0-.16c0-.28,0-.54.06-.79,0-.06,0-.1,0-.15l.06-.61a1.1,1.1,0,0,0,0-.18c0-.23.06-.46.09-.67h0c0-.21.07-.41.1-.61l0-.15c0-.17.07-.33.1-.48s0-.06,0-.09q.06-.27.12-.51l0-.1c0-.14.07-.26.11-.39l0-.1c.05-.14.1-.29.14-.42v0c.05-.13.1-.24.14-.36l0-.08c0-.11.09-.21.13-.3l0,0q.07-.16.15-.3l0-.06.12-.21,0,0,.15-.23h0l.14-.18,0,0,.13-.15h0l.14-.13,0,0,.11-.09,0,0,.12-.09h0l.09-.06,0,0,.09,0h0l.08,0h0l.06,0h.11c.47-.43.95-.88,1.42-1.33l.45-.44,1-1,.52-.53c.3-.31.6-.61.89-.92l.53-.56.87-.94c.17-.18.34-.36.5-.55s.6-.65.89-1c.15-.17.31-.34.45-.51l.94-1.07.37-.42,1-1.23.22-.25c.85-1,1.67-2,2.44-3l0-.06,1-1.31.2-.25c.29-.36.57-.71.83-1.05l.23-.3c.26-.32.5-.64.74-.94l.19-.25.72-.93.09-.12.9-1.17L24.62,63.16l2.26-1.3L23.51,56a1.92,1.92,0,0,1-.18-.43s0,0,0,0a1.68,1.68,0,0,1-.05-.4s0,0,0-.06,0-.08,0-.11,0-.1,0-.15l.06-.28s0,0,0-.06a2.5,2.5,0,0,1,.31-.66s.06-.07.08-.11.12-.15.18-.23a2.76,2.76,0,0,1,.23-.27l.06-.07.14-.13.16-.16.13-.11.22-.19.38-.29.24-.17.48-.33.23-.15.78-.48h0a16.32,16.32,0,0,1,2-1h0l.08,0,.25-.09a4.81,4.81,0,0,1,1.6-.33,3.15,3.15,0,0,1,.52,0,2,2,0,0,1,.88.42h.13l3.67,6.34,2.26-1.3,12.71,22h0l.46-.31c.35-.24.7-.48,1.06-.75.53-.4,1.06-.76,1.59-1.11l.49-.31c.37-.24.74-.47,1.11-.68l.5-.29,1.23-.66.27-.14c.49-.24,1-.46,1.43-.67l.38-.16c.34-.15.68-.29,1-.41l.38-.15,1.06-.38.16,0c.85-.29,1.6-.49,2.24-.65,0-.43-.07-.87-.1-1.31a2.45,2.45,0,0,0,0-.27c0-.58,0-1.16,0-1.74,0-1,0-2,0-3s0-1.63.09-2.42c0-.1,0-.2,0-.3.1-2,.25-4,.47-5.8l0,0a27.5,27.5,0,0,1-4.74-4.78A20.1,20.1,0,0,1,56,47.59,15.63,15.63,0,0,1,54,45l-.1-.14c-.14-.22-.27-.45-.4-.68s-.18-.33-.27-.49-.18-.34-.26-.52c-.17-.35-.33-.72-.48-1.09,0-.1-.07-.21-.11-.31-.11-.3-.21-.61-.31-.93l-.12-.43c-.08-.3-.16-.6-.22-.91,0-.14-.07-.29-.1-.44-.08-.44-.16-.9-.21-1.37v0c-.06-.55-.09-1.09-.11-1.63,0-.08,0-.17,0-.26v-.24c0-.46,0-.9,0-1.35a1,1,0,0,1,0-.17,15,15,0,0,1,.19-1.52s0-.06,0-.08A20.3,20.3,0,0,1,53.32,27c.1-.22.23-.42.34-.63s.17-.34.27-.51A32.14,32.14,0,0,1,56.42,22c0-.06.09-.13.14-.2l.86-1.11.39-.48c.15-.19.3-.39.46-.58l.35-.4.63-.74c.21-.24.41-.48.62-.71l1.35-1.49.51-.55,1-1c.37-.39.74-.79,1.12-1.18l.9-1,.89-1,1-1.11.66-.73c.4-.45.78-.9,1.17-1.35l.46-.54c.52-.62,1-1.25,1.51-1.89l0,0L71,5.22,71.15,5l10.63,5L80.59,11.4h0c-.46.56-1,1.12-1.44,1.68l-.39.44-1.28,1.41-.24.26c-1.11,1.2-2.26,2.4-3.41,3.58l.18-.09q1.84-1,3.75-1.89l.65-.31c1.32-.64,2.64-1.26,4-1.89l1-.46,2-.93L87,12.37l1.18-.58c.74-.37,1.46-.75,2.18-1.13l.68-.35c1-.51,1.88-1,2.78-1.57h0l1-.62h0l11.22,9.07-1.14.62-1.15.62c-1,.53-2,1.06-3.05,1.58l-.38.19c-1,.5-2,1-3,1.48l-.49.23c-1,.49-2.06,1-3.09,1.44l-.58.26-3,1.37-.06,0-.32.14-.92.42-.65.29L87,26.38c-6,2.73-12,5.63-15.69,8.52l0,0-.4.33c-.12.09-.23.19-.34.29a1.54,1.54,0,0,0-.19.17,11.88,11.88,0,0,0-1.49,1.58c-.15.2-.29.39-.41.58h0a5.36,5.36,0,0,0-.28.52l0,.06c-.07.15-.12.3-.17.44L68,39a5,5,0,0,0-.12.49c-.06.36-.09.7-.12,1v.13a9.9,9.9,0,0,0,.3,3,19.27,19.27,0,0,1,6.14-7.88l.26-.19c.32-.23.64-.44,1-.64l.68-.41.22-.11a18.61,18.61,0,0,1,2.88-1.29,29,29,0,0,1,8.26-1.42h.19c.63,0,1.25,0,1.89,0A29.74,29.74,0,0,1,101,33.56a17.65,17.65,0,0,1,2.26,1.13l.11.06.34.22c7.29,4.51,10.57,13.85,10.89,29.53,0,0,0,.07,0,.1,0,.84,0,1.69,0,2.57,0,.58,0,1.17-.05,1.74,0,.08,0,.16,0,.24,0,.45-.06.9-.11,1.34.65.16,1.4.36,2.25.65l.16,0,1.06.38.38.15c.33.12.67.26,1,.41l.38.16c.47.21.94.43,1.43.67l.27.14,1.23.66.5.29c.36.21.73.44,1.11.68l.49.31c.52.35,1.06.71,1.59,1.11s.92.66,1.36,1L140.42,55l2.25,1.3,2.45-4.23.93-1.61a2,2,0,0,1,.31-.38.86.86,0,0,1,.14-.13,1.64,1.64,0,0,1,.26-.16l.11-.08a1.54,1.54,0,0,1,.17,0,.76.76,0,0,1,.2-.06,2.16,2.16,0,0,1,.62-.09l.4,0h.08c.17,0,.35.06.53.1h0l.05,0a5.6,5.6,0,0,1,.54.17l.18.06.2.08.18.07.69.32.28.14c.32.16.65.33,1,.53s.65.39.94.58l.21.14.62.44.11.09a.39.39,0,0,1,.1.08,6.55,6.55,0,0,1,.54.48l.14.12.05.06a4.26,4.26,0,0,1,.46.57s0,0,.05.07a2.69,2.69,0,0,1,.3.64s0,.07,0,.11a1.55,1.55,0,0,1,.05.23c0,.06,0,.11,0,.16s0,.06,0,.09a.43.43,0,0,1,0,.05,1.44,1.44,0,0,1-.06.43h0a2.67,2.67,0,0,1-.18.44h0L152,61.72l2.26,1.3h0l-7.07,12.25-5.52,9.57,1,1.33.06.09c.25.31.51.65.78,1l.11.14c.28.36.58.74.88,1.14l.07.09c1,1.28,2.15,2.71,3.39,4.21l.06.08,1.15,1.37.27.33,1,1.16c.12.15.25.29.37.43.31.36.62.72.94,1.07l.44.5c.3.33.6.67.91,1l.48.54.9,1,.51.54c.3.32.61.63.91.94l.51.52,1,1,.44.43c.48.46,1,.9,1.43,1.34h.11l.06,0h0l.18.09h0l.11.06h0a.94.94,0,0,1,.12.09h0l.12.1,0,0,.15.14h0l.15.16,0,0a3.83,3.83,0,0,1,.32.42l0,0a2.55,2.55,0,0,1,.14.24l0,0a3,3,0,0,1,.16.31h0c.05.1.1.22.15.33l0,.07q.15.36.3.81l0,.08q.06.19.12.42l0,.07c.05.17.09.35.13.54v0c0,.17.08.35.11.53s0,.08,0,.11c.08.41.14.85.2,1.33,0,0,0,.09,0,.14,0,.21.05.43.07.66,0,0,0,.07,0,.1l.06.82V113c0,.24,0,.5,0,.76V114c0,.61,0,1.26,0,2a1.85,1.85,0,0,1,0,.23c0,.3,0,.62,0,.94v.15c0,.37,0,.76-.06,1.16,0,.07,0,.14,0,.21,0,.33,0,.68-.07,1,0,.09,0,.19,0,.29,0,.42-.07.86-.11,1.31h0q.15.27.3.51c1.1,1.59,1.57,4.89,2.82,7.19s4.64,3.61,4.82,5.26c0,.15.06.31.1.48l0,.11c.06.17.12.35.2.54a.61.61,0,0,0,.05.12l.23.53a1,1,0,0,0,.07.15l.29.61c1.38,2.81,3.75,7.11,4,12.73h0a21.5,21.5,0,0,1-.1,3.47Z"/><path class="cls-1" d="M77.07,107.41a98.63,98.63,0,0,1-8.57-22,18.23,18.23,0,0,1-5.21-6.1s-.5,7.26,1.39,20.9c0,0-3.33-8.23-6.22-17.67,0,0-.93,2.33-1.58,4.54a17.69,17.69,0,0,0-.5,2.12,6,6,0,0,0-.08.88A19.55,19.55,0,0,1,54.53,86a6.27,6.27,0,0,1-.22-1.15l-.12.57-.35,1.61-.13.56-.11.53-.08.36-.19.88-.4.09c-.81.18-2.72.62-4.77,1.16h0l-2,.56-1,.3-.59.2-.38.13c-.38.13-.73.26-1,.4a5.16,5.16,0,0,0-1.32.71l-.08.06c-.2.2-.52.54-.91,1,.27,1.63,2,11.86,3,13.68a33,33,0,0,1,2.34-7.17c.06-.13.12-.27.19-.41s0,.26,0,.73c0,2.82-.07,13.42,1.89,21.81.64,2.75,3,5.77,6,8.69q5.13,1.2,10.32,2.07c-3.69-5.17-7.25-10.82-8.05-14.35,0,0,.39.44,1.09,1.19.91,1,2.36,2.5,4.21,4.3l.8.77,1.14,1.08h0l.88.82.27.25,1.16,1c2.25,2,4.79,4.12,7.49,6.13a152.81,152.81,0,0,0,16,.89c1.63,0,3.26,0,4.89-.1.94,0,1.88-.09,2.82-.15-2.42-2.56-4.66-5.12-6.71-7.65A123.42,123.42,0,0,1,77.07,107.41Z"/><path class="cls-1" d="M40.75,94.06c-2.63,3-9,10.66-14.18,15.83a4,4,0,0,1-2.11,1.56,97,97,0,0,0,8.17,8.94c-3-7.85-1.87-12.18-1.87-12.18a17.23,17.23,0,0,0,3.75,6.53h0c0-.54-.06-1,0-1.52.18-6.63,0-10.06,0-10.06s6.5,20.13,8.12,22.06C42.58,125.22,39.75,104.26,40.75,94.06Z"/><path class="cls-1" d="M137.27,93a1.54,1.54,0,0,0-.23-.18,7.66,7.66,0,0,0-1.35-.67c-.32-.13-.68-.26-1.06-.39l-.37-.12-.36-.12-.24-.07-1-.3c-1.63-.48-3.37-.91-4.72-1.23h0c-1-.24-1.74-.41-2.08-.48l-.21,0-.25-1.16-.2-.88-.12-.57-.35-1.61-.06-.29a5.24,5.24,0,0,1-.08.53,17.93,17.93,0,0,1-1.91,4.71,6.83,6.83,0,0,0-.13-1.17,20.7,20.7,0,0,0-.53-2.09c-.64-2.13-1.5-4.28-1.5-4.28-2.81,9.16-6,17.17-6.2,17.63l0,0v0c1.88-13.63,1.39-20.88,1.39-20.88-2.16,4.83-7,14.18-11.91,23.51h0c-1.13,2.16-2.44,4.45-4,6.86a39.63,39.63,0,0,1-8.87,9.8,99.07,99.07,0,0,0,10.2-17.61l-.15-.05a18,18,0,0,1-6,5.27,12.24,12.24,0,0,1-10.94,0,16.07,16.07,0,0,1-4.59-3.58A28.63,28.63,0,0,1,77,100.48q1.2,2.65,2.71,5.53a119.37,119.37,0,0,0,12.32,18.75c1.67,2.1,3.47,4.23,5.41,6.37,1.83-3.63,3.64-7.2,5.24-10.34l1.35-2.65.5-1,3.74-7.32c0,.33-.09.71-.16,1.11-.22,1.34-.59,3-1.06,4.85-.29,1.11-.61,2.29-.95,3.5l-.21.72-.22.76h0c-.14.49-.29,1-.44,1.48s-.37,1.23-.55,1.83c-.37,1.22-.75,2.41-1.11,3.55-1,3.07-1.87,5.74-2.42,7.36l2.07-.18,3.22-.35a62.46,62.46,0,0,0,7.8-7c.47-.51.82-.9,1-1.14l.24-.28-.09.37c-.12.48-.26,1-.43,1.48a40.27,40.27,0,0,1-2.49,5.76q6.22-1,12.36-2.41c3-2.9,5.25-5.89,5.88-8.61,2.05-8.82,1.93-20.07,1.89-22.18,0-.23,0-.36,0-.36l.09.2a32.09,32.09,0,0,1,2.43,7.38c1-1.82,2.76-12,3-13.68C137.78,93.54,137.47,93.2,137.27,93Zm-55,15.39,7.23,3.38h0l7.24-3.38a36.52,36.52,0,0,1-7.24,10.2A36.9,36.9,0,0,1,82.26,108.39Z"/><path class="cls-1" d="M152.43,109.89c-5.17-5.17-11.55-12.86-14.18-15.83,1,10.2-1.83,31.16-1.83,31.16,1.62-1.93,8.12-22.06,8.12-22.06s-.18,3.43,0,10.06c0,.47,0,1,0,1.52h0a17.38,17.38,0,0,0,3.75-6.53s1.12,4.33-1.88,12.18a95.33,95.33,0,0,0,8.17-8.94A4,4,0,0,1,152.43,109.89Z"/><path class="cls-1" d="M79,88.06c.47,1.16,1,2.4,1.54,3.65.25.56.51,1.12.77,1.68s.67,1.41,1,2.1.58,1.13.87,1.68A28.45,28.45,0,0,0,87,102.81a6,6,0,0,0,1.86,1.45,1.65,1.65,0,0,0,.64.15h0a1.5,1.5,0,0,0,.59-.13,4.07,4.07,0,0,0,.84-.49A11.51,11.51,0,0,0,93,101.62c.51-.66,1-1.43,1.54-2.26l.56-.94c.76-1.3,1.5-2.72,2.2-4.17a2,2,0,0,1,.1-.21c.65-1.37,1.27-2.75,1.83-4.09.66-1.55,1.24-3,1.74-4.32a77.36,77.36,0,0,1-9.52,3.61,9,9,0,0,1-1.94.39H89v-.05a11.9,11.9,0,0,1-1.45-.34c-.86-.24-1.94-.59-3.15-1-1.88-.68-4.11-1.57-6.38-2.59.12.3.23.61.36.93Z"/><path class="cls-2" d="M99.8,16.59l-4.25-3.44C82.28,21,64.86,25.21,60.33,37.55c0,.07,0,.14-.07.21A13.88,13.88,0,0,0,60,40.42c0,.3,0,.6,0,.9A13,13,0,0,0,60.86,45a15.82,15.82,0,0,0,2,3.63c.17.23.35.45.53.67a21.51,21.51,0,0,0,2.23,2.36c.08-.44.17-.87.27-1.3s.23-1,.35-1.45c0-.13.07-.27.1-.4a17.07,17.07,0,0,1-.88-1.64,13.47,13.47,0,0,1-.83-2.31,13,13,0,0,1-.44-3.35,13.31,13.31,0,0,1,.2-2.32,8.45,8.45,0,0,1,1.72-3.72A17.76,17.76,0,0,1,69.37,32a58.62,58.62,0,0,1,9.54-5.66C85.46,23.12,93.22,19.94,99.8,16.59Z"/><path class="cls-2" d="M34.39,66.79l8.25,14.27c1.29-.44,2.78-.91,4.47-1.65L48,79l.22-.11.33-.17L37.35,59.28l-.32.18-.21.12-.87.5-3,1.76,1.51,5Z"/><path class="cls-2" d="M138.12,81.74a6.74,6.74,0,0,1,.89.45l.21.12.3.21,8.34-14.45.16-1,.1-.67.43-2.74.07-.42L144.68,61h0L133.62,80.11h0C135.38,80.77,136.87,81.18,138.12,81.74Z"/><path class="cls-2" d="M101.14,101.9c.1-.22.21-.44.3-.66l-.45.61Z"/><path class="cls-2" d="M17.71,127.4a17.78,17.78,0,0,1-1.24,3A12.68,12.68,0,0,1,13,134.13c-.33.26-.79.62-1,.86a16.53,16.53,0,0,1-1.56,3.82A38.83,38.83,0,0,0,8.11,144l.43-.23c2.3-1.78,4.81-2.63,5.71-3.44,1.81-1.62,1.35-6.86,1.35-6.86a5.75,5.75,0,0,1,3.34,1C18.44,131.93,18,129.56,17.71,127.4Z"/><path class="cls-2" d="M140,87.65l-.62-.81-.37-.48-.65-.85-.08-.09a3.83,3.83,0,0,0-.29-.28l-.29-.23-.21-.13a6.34,6.34,0,0,0-.9-.43c-.52-.21-1.14-.42-1.92-.68s-1.64-.56-2.59-.93h0c-.6-.23-1.23-.49-1.9-.79l-.9-.45-.54-.27-.34-.19-1-.54-1.28-.79c-.53-.36-1.08-.73-1.65-1.15a30.9,30.9,0,0,0-10.08-5c-.25.69-.56,1.41-.91,2.14a54,54,0,0,1-3.06,8.73,65.15,65.15,0,0,1-6.7,18.39h0c4.93-9.33,9.75-18.68,11.91-23.51,0,0,.49,7.25-1.39,20.88v0l0,0c.18-.46,3.39-8.47,6.2-17.63,0,0,.86,2.15,1.5,4.28a20.7,20.7,0,0,1,.53,2.09,6.83,6.83,0,0,1,.13,1.17,17.93,17.93,0,0,0,1.91-4.71,5.24,5.24,0,0,0,.08-.53l.06.29.35,1.61.12.57.2.88.25,1.16.21,0c.34.07,1.1.24,2.08.48h0c1.35.32,3.09.75,4.72,1.23l1,.3.24.07.36.12.37.12c.38.13.74.26,1.06.39a7.66,7.66,0,0,1,1.35.67,1.54,1.54,0,0,1,.23.18c.2.2.51.54.91,1,0-.15,0-.23,0-.23l0,.3c2.63,3,9,10.66,14.18,15.83a4,4,0,0,0,2.1,1.56c1-1.22,2-2.53,3-3.9a1.51,1.51,0,0,0-.27-.31C150.38,101,143.65,92.37,140,87.65Z"/><path class="cls-2" d="M65.39,75.39c-.3-.61-.57-1.22-.8-1.81a30.93,30.93,0,0,0-10.11,5c-.63.46-1.23.87-1.82,1.25-.43.28-.86.54-1.27.79l-1,.53-.35.19-.32.16-.22.11-.91.43c-1.64.74-3.09,1.23-4.31,1.65l-.14,0h0c-.8.27-1.44.49-2,.71a6.09,6.09,0,0,0-.89.46,3.23,3.23,0,0,0-.49.39,2.5,2.5,0,0,0-.22.24l0,.07c-.21.26-.46.59-.73,1l-.24.31-.75,1c-3.65,4.75-10.31,13.26-17.08,19.42a1.26,1.26,0,0,0-.27.31c1,1.37,2,2.68,3,3.9a4,4,0,0,0,2.11-1.56C31.74,104.72,38.12,97,40.75,94.06l0-.3s0,.08,0,.23c.39-.45.71-.79.91-1l.08-.06a5.16,5.16,0,0,1,1.32-.71c.32-.14.67-.27,1-.4l.38-.13.59-.2,1-.3,2-.56h0c2.05-.54,4-1,4.77-1.16l.4-.09.19-.88.08-.36.11-.53.13-.56.35-1.61.12-.57A6.27,6.27,0,0,0,54.53,86a19.55,19.55,0,0,0,1.77,4.09,6,6,0,0,1,.08-.88,17.69,17.69,0,0,1,.5-2.12c.65-2.21,1.58-4.54,1.58-4.54,2.89,9.44,6.22,17.67,6.22,17.67-1.89-13.64-1.39-20.9-1.39-20.9a18.23,18.23,0,0,0,5.21,6.1c-.2-.85-.37-1.59-.5-2.22A50.76,50.76,0,0,1,65.39,75.39Z"/><path class="cls-2" d="M168.63,138.81a16.53,16.53,0,0,1-1.56-3.82c-.24-.24-.7-.6-1-.86a12.68,12.68,0,0,1-3.51-3.76,17.78,17.78,0,0,1-1.24-3c-.32,2.16-.73,4.53-1.23,7.13a5.72,5.72,0,0,1,3.33-1s-.45,5.24,1.36,6.86c.89.81,3.4,1.66,5.7,3.44l.45.24A39.68,39.68,0,0,0,168.63,138.81Z"/><path class="cls-2" d="M89.63,83.62H90l1,0-1,0v0Z"/><path class="cls-2" d="M101.23,85l.18-.5c-.49.19-1,.36-1.46.52a34.51,34.51,0,0,1-9,1.61h-.19l-1.06,0H88.62l-.62,0a39,39,0,0,1-4.06-.43L82.82,86l-.33-.07-.29-.06c-1-.2-1.93-.44-2.93-.75-.56-.17-1.11-.36-1.67-.58.05.15.11.31.17.47s.15.39.23.6l0,.05c2.27,1,4.5,1.91,6.38,2.59,1.21.43,2.29.78,3.15,1a11.9,11.9,0,0,0,1.45.34v.05h.52a9,9,0,0,0,1.94-.39A77.36,77.36,0,0,0,101,85.63l0-.06Z"/><path class="cls-3" d="M28.69,56.91,26.8,53.63l-.43.3a5.08,5.08,0,0,0-1,.9,1.22,1.22,0,0,0-.14.24l1.65,2.86Z"/><rect class="cls-3" x="28.13" y="59.06" width="2.05" height="1.38" transform="translate(-25.97 22.58) rotate(-30)"/><path class="cls-3" d="M149.76,52.17c-.22-.11-.45-.22-.65-.3a4,4,0,0,0-1.25-.32h-.12l-1.65,2.86,1.78,1Z"/><rect class="cls-3" x="144.95" y="56.24" width="1.37" height="2.05" transform="translate(23.24 154.76) rotate(-60)"/><path class="cls-3" d="M24.83,186.5a2.18,2.18,0,0,0,.27.15,6.41,6.41,0,0,0,2.26.48v-3.65a10.14,10.14,0,0,1-2.53-1.13Z"/><path class="cls-3" d="M24.83,188.68v1.9a1.68,1.68,0,0,0,.45.28,5.78,5.78,0,0,0,2.08.44v-2.18a9.73,9.73,0,0,1-2.33-.36Z"/><path class="cls-3" d="M24.83,129.68v15.9a1.68,1.68,0,0,0,.45.28,5.78,5.78,0,0,0,2.08.44V130.12a9.73,9.73,0,0,1-2.33-.36Z"/><path class="cls-3" d="M24.57,124.49l.13.07.13,0v2.89a2.18,2.18,0,0,0,.27.15,6.41,6.41,0,0,0,2.26.48v-3l.41,0a8.48,8.48,0,0,0,2.37-.33,4.22,4.22,0,0,0,.57-.21c.87-.37,1.43-.89,1.43-1.48s-.5-1.07-1.3-1.44a7.6,7.6,0,0,0-3.07-.58,7.6,7.6,0,0,0-3.07.58c-.8.37-1.3.88-1.3,1.44S23.85,124.13,24.57,124.49Z"/><path class="cls-3" d="M151.64,191.31a6.73,6.73,0,0,0,1.65-.28,2.5,2.5,0,0,0,.88-.44v-1.91a8.9,8.9,0,0,1-2.53.45Z"/><path class="cls-3" d="M151.64,187.13a7,7,0,0,0,1.9-.34,3.1,3.1,0,0,0,.63-.29v-4.15a10.14,10.14,0,0,1-2.53,1.13Z"/><path class="cls-3" d="M98.68,70.41c-1.59.41-3.94.89-5.87,1.27a17.2,17.2,0,0,1-6.63,0c-1.92-.38-4.28-.86-5.87-1.27-2.7-.7-6-.75-8,3.43C71.88,74.9,70.71,76,70.71,77a7.84,7.84,0,0,0,.22,1.75,8.72,8.72,0,0,0,3.19,5c-.31-.87-.5-1.43-.55-1.58v0L72.31,78.3l3.41,2a26.36,26.36,0,0,0,7.88,2.75l.5.09,1.26-4.4a15.23,15.23,0,0,1-5.06,1.64,1.87,1.87,0,0,1-.34,0c-1.84-.29-5-2.94-5.57-4L73.67,75l1.38.68a24.39,24.39,0,0,0,5.18,1.9,2.7,2.7,0,0,0,1.87-.54,43,43,0,0,1-5.6-2c-2.15-1.08-2.17-2.62-2.17-2.68v-.69L85,75.17v1.31l2.71,1.07-.12.06h.12v6l.32,0,1.49,0H90v0l1,0,.28,0v-6h.12l-.12-.06L94,76.48V75.17l10.68-3.44v.69c0,.06,0,1.6-2.17,2.68a43,43,0,0,1-5.6,2,2.68,2.68,0,0,0,1.86.54A24.53,24.53,0,0,0,104,75.7l1.38-.68-.72,1.36c-.55,1-3.73,3.68-5.57,4a1.87,1.87,0,0,1-.34,0,15.27,15.27,0,0,1-5.07-1.64l1.27,4.41a26.81,26.81,0,0,0,8.39-2.85l3.35-1.85-1.2,3.64s-.15.46-.41,1.21c0,.13-.1.26-.15.41a8.85,8.85,0,0,0,3-4.26,8.32,8.32,0,0,0,.39-2.45c0-1-1.18-2.1-1.66-3.16C104.74,69.66,101.39,69.71,98.68,70.41Z"/><path class="cls-3" d="M151.64,146.22v.09a6.73,6.73,0,0,0,1.65-.28,2.5,2.5,0,0,0,.88-.44V129.68a8.9,8.9,0,0,1-2.53.45Z"/><path class="cls-3" d="M146.85,123.13c0,.59.56,1.11,1.44,1.48a4.63,4.63,0,0,0,.56.21,8.6,8.6,0,0,0,2.38.33l.41,0v3a7,7,0,0,0,1.9-.34,3.1,3.1,0,0,0,.63-.29v-2.89l.13,0,.13-.07c.72-.36,1.17-.83,1.17-1.36s-.5-1.07-1.31-1.44a8.39,8.39,0,0,0-6.13,0C147.36,122.06,146.85,122.57,146.85,123.13Z"/><path class="cls-3" d="M106.6,139.5l-.26-1-1.49.16c-.6.06-1.2.13-1.8.18l-2.13.2-1.69.12-1.7.11c-2.32.13-4.69.21-7.08.23h-1.9c-2.74,0-5.45-.12-8.09-.29-4.38-.29-8.6-.76-12.61-1.35q-3.85-.57-7.41-1.26c-4.65-.89-8.9-1.91-12.62-2.92-.7-.18-1.38-.37-2-.56l-.36.83-.35.81c1.42.44,2.93.9,4.53,1.36,4.4,1.25,9.47,2.5,15,3.52q2.58.48,5.28.88A137.17,137.17,0,0,0,86,142c1.17,0,2.35.06,3.54.06s2.5,0,3.75-.07c2.09-.06,4.16-.18,6.2-.33,1.17-.1,2.33-.2,3.48-.32l.3,0q1.89-.2,3.72-.45l-.07-.26Z"/><path class="cls-3" d="M145.35,130.1v-.92c-1.19.45-2.86,1.06-5,1.76-2.51.83-5.61,1.79-9.2,2.75l-.23.07,0,.32-.12.72-.16,1c3.54-1,6.61-2.06,9.09-3s4.43-1.67,5.64-2.18Z"/><path class="cls-3" d="M43.18,132.38c-1.68-.51-3.21-1-4.56-1.44l-2.48-.85v1.54c.91.36,2,.75,3.15,1.18s2.69.95,4.25,1.47l-.17-.92Z"/><path class="cls-3" d="M128.66,134.36c-3.08.78-6.47,1.55-10.1,2.25-2.71.52-5.55,1-8.51,1.42l-.83.12-.17,1-.11.63-.12.75q2.85-.42,5.55-.92c5.48-1,10.48-2.23,14.84-3.47l-.27-.89Z"/><path class="cls-3" d="M171.58,150.51a6.45,6.45,0,0,0-1-3,3.82,3.82,0,0,0-1.68-1.31,11.2,11.2,0,0,0-1.75-.58c-.89-.24-1.92-.47-3-.79h0a5.67,5.67,0,0,1-1.06-.46c-.38-.19-.81-.43-1.28-.71-.81-.48-1.74-1.06-2.66-1.64l-.39-.25-.18-.12-1.29-.83-.18-.12.06,3,0,1.42h0v.1a7.11,7.11,0,0,1-.15,1.37,6.14,6.14,0,0,1-.95,2.19,5,5,0,0,1-1.49,1.37l-.16.08a6.08,6.08,0,0,1-2.79.71h-.45c-1,0-1.74-.06-2.34-.1l-.5,0-.39,0-.62-.08-.33-.06-.16,0-.19,0a2.3,2.3,0,0,1-.75-.31l-.15-.11a1.6,1.6,0,0,1-.41-.51h0a1.34,1.34,0,0,1-.14-.64v0l-.05-.56-.14-1.33a14.66,14.66,0,0,0-1.67,1.76l0,.11c-.3,1.26-.32,3.15,2,3.75l.19.05.22.05,1.09.23,1.11.22.39.07.47.08h0a19.1,19.1,0,0,0,2.08.22l.71,0,.45,0a12.63,12.63,0,0,0,2.34-.35c.33-.08.66-.15,1-.26a16.76,16.76,0,0,0,2.5-1.05,20.13,20.13,0,0,0,2-1.17.57.57,0,0,1,.83.73c-.42.89-1.27,2-1.86,3-.88,1.51-1.17,2.8,1.46,2.8,2,0-4.79,6.64-.79,6.64.8,0,.68.56.18,1.37-.23.37-.53.78-.87,1.22s-.62.79-.94,1.19-.62.8-.87,1.17c-.73,1.06-1,1.86,0,1.87h.06c1,0,.74,1.3-.06,2.83a14,14,0,0,1-1.44,2.16,11.21,11.21,0,0,1-.79.88l.72-.35.07,0a13.62,13.62,0,0,0,1.44-.88,22.18,22.18,0,0,0,2.25-1.82,40.45,40.45,0,0,0,3.27-3.4l.39-.43.86-1.05c.95-1.17,1.76-2.24,2.36-3.07s.9-1.27,1-1.48l0-.08h0l.08-.13.3-.52c.25-.45.6-1.1,1-1.89a36.33,36.33,0,0,0,2.14-5.25c.07-.2.14-.4.19-.59a15.43,15.43,0,0,0,.67-4.11A7.91,7.91,0,0,0,171.58,150.51Z"/><path class="cls-3" d="M35.65,148.82c-.09-.11-.18-.23-.28-.34a13.91,13.91,0,0,0-1-1.12l-.27-.25-.1,1.3-.05.78a1.35,1.35,0,0,1-.26.68,1.3,1.3,0,0,1-.4.41,1.82,1.82,0,0,1-.28.13,1.84,1.84,0,0,1-.25.09h-.05l-.22.08-.3.06-.52.08-.58.05-.4,0-.5,0-1,0-1.3,0h-.48a6,6,0,0,1-2.79-.71l-.16-.08a4.44,4.44,0,0,1-.76-.57,5.21,5.21,0,0,1-1-1.31,6.54,6.54,0,0,1-.78-3.05h0v-.1h0l0-1.42.06-3-.19.12c-.4.26-.83.55-1.28.83l-.57.37-1.56,1c-.89.54-1.72,1-2.38,1.37a6,6,0,0,1-1.06.46h0c-1.26.36-2.41.6-3.37.88a7.15,7.15,0,0,0-2.28,1,3.29,3.29,0,0,0-1,1,6.92,6.92,0,0,0-.84,2.76,7.91,7.91,0,0,0-.06,1,16,16,0,0,0,.85,4.7,31.3,31.3,0,0,0,1.22,3.27A39.69,39.69,0,0,0,11.74,164l0,0,.12.17c.1.16.26.38.46.67l.49.68q.51.7,1.2,1.62l1.15,1.45,1.25,1.48a41.92,41.92,0,0,0,2.91,3l.11.11A22.54,22.54,0,0,0,22,175.34a13.62,13.62,0,0,0,1.44.88l.07,0,.72.35a11.21,11.21,0,0,1-.79-.88A14,14,0,0,1,22,173.57c-.8-1.53-1.05-2.86-.06-2.83H22c1,0,.73-.81,0-1.87-.25-.37-.56-.77-.88-1.17l-.93-1.19c-.34-.44-.64-.85-.87-1.22-.5-.81-.62-1.37.18-1.37,4,0-2.81-6.64-.79-6.64,2.63,0,2.34-1.29,1.46-2.8-.59-1-1.44-2.11-1.86-3a.57.57,0,0,1,.83-.73,19,19,0,0,0,2,1.17,16.76,16.76,0,0,0,2.5,1.05c.34.11.67.18,1,.26a12.63,12.63,0,0,0,2.34.35l.45,0,.7,0a18.59,18.59,0,0,0,2.08-.22h0l.46-.08.4-.07,1.1-.22,1.1-.23.22-.05.18-.05c2.36-.6,2.34-2.49,2-3.75Z"/><path class="cls-4" d="M60.42,37c0,.15-.07.29-.1.44l-.06.31c0-.07.05-.14.07-.21,4.53-12.34,22-16.57,35.22-24.4l-1-.82c-5.08,2.9-10.59,5.3-15.68,7.79-5.45,2.65-10.4,5.43-13.8,8.89a17.05,17.05,0,0,0-4.64,8Z"/><path class="cls-4" d="M39.83,82.28a9.1,9.1,0,0,1,.88-.47,20,20,0,0,1,1.93-.75h0L34.39,66.79h0L30.2,63.4l-.09.05-.87.5-.52.31,10.6,18.36C39.48,82.5,39.65,82.39,39.83,82.28Z"/><path class="cls-4" d="M131.71,79.33c.67.3,1.31.56,1.91.78L144.68,61l-1.77-1-.87-.5-.53-.3L130.26,78.63c.18.1.36.18.54.27Z"/><path class="cls-4" d="M27.77,189.14l-.41,0v2.18l.41,0a6.77,6.77,0,0,0,2.06-.29l.31-.12a2.1,2.1,0,0,0,.57-.32v-1.91l-.57.17A9.74,9.74,0,0,1,27.77,189.14Z"/><path class="cls-4" d="M30.08,186.79l.06,0a3,3,0,0,0,.5-.23v-2.47l-.5,0a14.58,14.58,0,0,1-2.78-.54v3.65l.41,0A7,7,0,0,0,30.08,186.79Z"/><path class="cls-4" d="M27.77,146.32a6.77,6.77,0,0,0,2.06-.29l.31-.12a2,2,0,0,0,.5-.27V129.71l-.5.14a9.74,9.74,0,0,1-2.37.29l-.41,0V146.3l.25,0Z"/><path class="cls-4" d="M30.08,127.79l.06,0a3,3,0,0,0,.5-.23v-2.82l.07,0v-.14a4.22,4.22,0,0,1-.57.21,8.48,8.48,0,0,1-2.37.33l-.41,0v3l.41,0A7,7,0,0,0,30.08,127.79Z"/><path class="cls-4" d="M82.82,35.24a24.05,24.05,0,0,0-8.6,5,30.7,30.7,0,0,1,30.55,0,23.91,23.91,0,0,0-8.49-4.95,21,21,0,0,0-13.46,0Z"/><path class="cls-4" d="M148.35,184.07v2.46l.2.12.3.11a7,7,0,0,0,2.38.39l.41,0v-3.65a14.54,14.54,0,0,1-2.79.54Z"/><path class="cls-4" d="M148.85,188.84l-.36-.08-.2-.08v1.9a1.68,1.68,0,0,0,.45.28l.11,0a6.37,6.37,0,0,0,2.38.41h.41v-2.18h-.41A9.87,9.87,0,0,1,148.85,188.84Z"/><path class="cls-4" d="M148.35,127.53l.2.12.3.11a7,7,0,0,0,2.38.39l.41,0v-3l-.41,0a8.6,8.6,0,0,1-2.38-.33,4.63,4.63,0,0,1-.56-.21v.14l.06,0Z"/><path class="cls-4" d="M148.85,129.84l-.36-.08-.14,0v15.93a2.06,2.06,0,0,0,.39.22l.11,0a6.37,6.37,0,0,0,2.38.41h.41V130.13h-.41A9.87,9.87,0,0,1,148.85,129.84Z"/><path class="cls-4" d="M142.09,177.25a5,5,0,0,1-1.73-2.05,3.87,3.87,0,0,1-.31-1.53,15.15,15.15,0,0,1,.09-1.65,6.35,6.35,0,0,1-.84-.82,7.22,7.22,0,0,1-1.6-4.75,6.53,6.53,0,0,1,.26-1.91,6,6,0,0,1,.48-1.08,5.42,5.42,0,0,1-.47-1.23,8.38,8.38,0,0,1-.19-1.2c0-.14,0-.28,0-.42,0-.32,0-.65,0-1h0v-.15a6.09,6.09,0,0,1,.26-1.72,5.13,5.13,0,0,1,.25-.69,4.42,4.42,0,0,1,1.26-1.59l0-.05v0a6.43,6.43,0,0,1-.39-2.33,12.63,12.63,0,0,1,.41-3h0a7.5,7.5,0,0,1,1.36-2.67,16.9,16.9,0,0,1,1.95-2.14,27.87,27.87,0,0,1,2.53-2.09V130.63c-1.21.51-3.12,1.27-5.64,2.18s-5.55,1.93-9.09,3l-.54,3.29-.83-2.73,0-.15c-4.36,1.24-9.36,2.46-14.84,3.47q-2.7.49-5.55.92l-.25,1.5-.25,1.53-.24,1.46-.3-1.12-.44-1.67-.39-1.45q-1.83.26-3.72.45l-.3,0c-1.15.12-2.31.22-3.48.32-2,.15-4.11.27-6.2.33-1.25,0-2.49.07-3.75.07S87.13,142,86,142a137.17,137.17,0,0,1-16.06-1.43q-2.7-.41-5.28-.88c-5.55-1-10.62-2.27-15-3.52-1.6-.46-3.11-.92-4.53-1.36l-1,2.29-.54-2.78c-1.56-.52-3-1-4.25-1.47s-2.24-.82-3.15-1.18v13.51a17.54,17.54,0,0,1,1.5,1.58,13.6,13.6,0,0,1,3,3.57,4.55,4.55,0,0,1,.4,1,7.68,7.68,0,0,1,.08,4.52,1.49,1.49,0,0,0,.46,1.72c.11.09.21.19.32.3a3.5,3.5,0,0,1,.85,1.93,6.54,6.54,0,0,1,.06.81c0,.28,0,.53,0,.78v0a5.11,5.11,0,0,1-.78,2.82c-.41.51.82.86.82,3.22a5.19,5.19,0,0,1-2.54,4.88,16,16,0,0,1,.18,2.34c0,1.27-.9,2.61-4.33,3.87l0,0V186c2.53.92,5.1,1.73,7.67,2.49l1.47-4,.77,4.66a170.84,170.84,0,0,0,19.26,4.29l1-5.89,1.66,6.28a148.16,148.16,0,0,0,40.84.36,169.53,169.53,0,0,0,19.84-3.87l1.66-3.83.73,3.2q2.46-.67,4.91-1.41c3.17-1,6.35-2,9.43-3.23V178.9h0A13.05,13.05,0,0,1,142.09,177.25ZM62.93,150.86A175.42,175.42,0,0,0,87.76,153v6c-3.17-.3-6.34-.71-9.51-1.19-1.79-.26-3.58-.56-5.36-.88l-.51-.09q-2.44-.45-4.89-1c-1.52-.33-3-.65-4.56-1Zm24.83,34.19A173.69,173.69,0,0,1,65,183.23v-4c.83.09,1.66.14,2.49.22V157.18a32.7,32.7,0,0,0,4.82,1.65c-.12,3.5-.25,7-.37,10.49l-.06,1.59-.06,1.58c0,1-.07,2.06-.11,3.09l-.15,4.18c2.76.18,5.51.28,8.27.32s5.29,0,7.93,0v5Zm5.57,5,0-.05-2.71-2.82c.25-.24.48-.5.71-.75a25.33,25.33,0,0,0,2.85-3.53A29.37,29.37,0,0,0,97,177.39c.24-.63.47-1.26.68-1.89s.37-1.22.53-1.83a41.36,41.36,0,0,0,1.25-8q-4-4.47-8-9.12l-.07-.08c1.38-1.18,2.75-2.37,4.13-3.58l2.43,3c.46.57.92,1.15,1.39,1.72-.07-.64-.13-1.26-.21-1.84A42.5,42.5,0,0,0,98,149.84c1.54-.42,3.09-.86,4.63-1.33l.22-.06c0,.08.23.79.49,2s.49,2.43.73,4.1c.13.95.25,2,.34,3.09a52.76,52.76,0,0,1,.21,5.49c0,.31,0,.61,0,.91a41.75,41.75,0,0,1-.73,6.42c-.08.36-.15.72-.23,1.08q-.21.92-.45,1.8c-.18.62-.36,1.24-.56,1.84a39,39,0,0,1-1.54,3.9,36.4,36.4,0,0,1-7,10.23C93.82,189.53,93.58,189.79,93.33,190Zm23.13-11.32c-1.32.21-2.65.39-4,.56v-3.8l-2.13,2c-.74-.78-1.47-1.57-2.21-2.36l-1.49-1.59-1.1-1.17-.75-.82c.06-.19.11-.37.16-.56a40.41,40.41,0,0,0,1-5.26c1,1.22,2,2.44,3,3.64.34.41.68.8,1,1.2s.68.81,1,1.21.67.78,1,1.18l.42.49V152.73c1.27-.16,2.53-.35,3.79-.54l1.19-.17,0,1c0,.69,0,1.37-.08,2.06-.13,3.69-.27,7.37-.41,11.06l-.06,1.64-.06,1.64,0,.87C116.67,173.11,116.57,175.91,116.46,178.71Z"/><path class="cls-4" d="M160.73,151.48a.57.57,0,0,0-.83-.73,20.13,20.13,0,0,1-2,1.17,16.76,16.76,0,0,1-2.5,1.05c-.34.11-.67.18-1,.26a12.63,12.63,0,0,1-2.34.35l-.45,0-.71,0a19.1,19.1,0,0,1-2.08-.22h0l-.47-.08-.39-.07-1.11-.22-1.09-.23-.22-.05-.19-.05c-2.35-.6-2.33-2.49-2-3.75l0-.11-.11.13-.07.09a4.94,4.94,0,0,0-.87,1.63A10.3,10.3,0,0,0,142,153a4.28,4.28,0,0,0,.15,1.16h0a2.46,2.46,0,0,0,1.15,1.41,7.78,7.78,0,0,0,1.81.89l.26.1.09,0,.32.09c.33.1.69.2,1.09.3l.64.13.47.1.39.07.5.07.64.1a6.12,6.12,0,0,0,1.21,0,7.32,7.32,0,0,0,.94-.12l.57-.13h.06l1.59-.21.57-.05c1-.1,2.07-.12,2.14.14s-.91.72-2,1.19l-.14,0c-.43.18-.87.36-1.27.51-.69.27-1.25.47-1.42.53l-.06,0h0a4,4,0,0,1-1.34.12c-.51,0-1-.08-1.45-.13l-.5-.06-.39-.06q-.59-.07-1.11-.18c-.38-.07-.75-.15-1.09-.23l-.41-.1c-.42-.1-.81-.21-1.16-.32-.52-.17-.95-.33-1.32-.48s-.52-.22-.72-.32a5,5,0,0,1-.56-.3,3.43,3.43,0,0,1-.33.33,1.51,1.51,0,0,0-.39.48.35.35,0,0,1-.05.08,2.74,2.74,0,0,0-.22.91c0,.13,0,.26,0,.41h0c0,.11,0,.21,0,.31a8.05,8.05,0,0,0,.17,1.66,2,2,0,0,0,.33.78l0,.06c.26.34,1.16,1.13,4.23,1.94l.41.11,1.09.25c.35.08.72.15,1.11.22l.39.08.5.08.83.14a3.28,3.28,0,0,0,1.35-.16l.61-.11c.68-.11,1.79-.28,2.79-.39l.61-.06c.83-.06,1.48-.05,1.53.13s-.34.39-.9.67c-.36.17-.79.36-1.24.55-.76.31-1.58.62-2.19.84l-.6.22-.31.11a6.13,6.13,0,0,1-1.7.2c-.27,0-.52,0-.78-.06l-.5,0-.39-.05c-.38,0-.75-.1-1.11-.17l-.53-.1-.56-.12-.41-.1a22.31,22.31,0,0,1-4.44-1.66.35.35,0,0,1,0,.08,2.94,2.94,0,0,0-.29,1.45,4.62,4.62,0,0,0,.57,2.39.6.6,0,0,1,.23.06s1.82.9,4,1.74l.07,0,.34.12,1.09.4c.37.13.74.24,1.11.35l.33.1.06,0,.5.13.09,0a21.29,21.29,0,0,0,2.7-.07c1.12-.05,2.17,0,2.24.22s-1.19,1-2.24,1.41c-.69.31-1.28.53-1.28.53a2.25,2.25,0,0,1-1,0l-.48-.1-.5-.12h-.06l-.33-.09q-.56-.15-1.11-.33l-1.09-.36-.34-.13-.07,0c-.82-.3-1.61-.62-2.31-.92,0,.09,0,.19,0,.32a14.71,14.71,0,0,0-.09,1.49,1.35,1.35,0,0,0,.08.4,2,2,0,0,0,.38.52,6.53,6.53,0,0,0,2,1.22l.07,0,.34.14.56.22.53.21,1.11.46.33.15.06,0,.5.21.1,0a5.07,5.07,0,0,0,2,.43,4.88,4.88,0,0,0,.73-.06,10.2,10.2,0,0,0,2.53-.77l.26-.12.38-.16a11.21,11.21,0,0,0,.79-.88,14,14,0,0,0,1.44-2.16c.8-1.53,1.05-2.86.06-2.83H157c-1,0-.73-.81,0-1.87.25-.37.56-.77.87-1.17s.64-.8.94-1.19.64-.85.87-1.22c.5-.81.62-1.37-.18-1.37-4,0,2.8-6.64.79-6.64-2.63,0-2.34-1.29-1.46-2.8C159.46,153.48,160.31,152.37,160.73,151.48Z"/><path class="cls-4" d="M33.64,172.78l-.06,0-.34.13c-.36.13-.73.25-1.1.36s-.73.23-1.1.33l-.33.09h-.07l-.5.12-.55.12a2.18,2.18,0,0,1-.88,0s-.62-.24-1.35-.56c-1.06-.46-2.33-1.08-2.25-1.4s1.08-.28,2.25-.27c1,0,2.05,0,2.78,0a3.11,3.11,0,0,0,.5-.05h.07l.11,0,.22-.07c.37-.11.74-.22,1.1-.35l1.1-.39.34-.13.06,0c1-.37,1.82-.74,2.5-1,.89-.4,1.47-.68,1.48-.69a.71.71,0,0,1,.24-.06,4.72,4.72,0,0,0,.57-2.39,3.54,3.54,0,0,0-.15-1.11,2.76,2.76,0,0,0-.19-.42,19.17,19.17,0,0,1-2,.86,21.12,21.12,0,0,1-2.5.8l-.4.1-.56.12-.54.1c-.35.07-.72.13-1.1.18l-.4,0-.5,0H30a8,8,0,0,1-2.63-.24h0l-.66-.24c-.54-.2-1.34-.5-2.1-.82-.45-.19-.89-.38-1.25-.56-.55-.28-.93-.53-.89-.68s.73-.22,1.56-.17l.58,0c1.27.12,2.65.35,2.65.35l.14,0a7.93,7.93,0,0,0,2.78.27l.23,0,.27,0L31,165l1.1-.21c.4-.08.76-.16,1.1-.25l.4-.1a14.16,14.16,0,0,0,2.5-.89A4.39,4.39,0,0,0,38,162.22a2.15,2.15,0,0,0,.24-.66,8,8,0,0,0,.19-1.83v-.14h0v0c0-.15,0-.28,0-.41a3,3,0,0,0-.22-.91,2.14,2.14,0,0,0-.44-.56,2.06,2.06,0,0,1-.33-.33l-.4.22c-.23.12-.5.25-.87.4h0c-.33.14-.73.28-1.17.42s-.83.26-1.32.38l-.4.1-1.1.23-.38.07-.72.09-.4,0-.5,0a15.18,15.18,0,0,1-2.78-.09h0c-.46-.06-.91-.13-1.36-.22a1.66,1.66,0,0,0-.21-.06,8,8,0,0,1-1.19-.42l-.18-.07-.06,0c-.85-.41-2-1-1.9-1.36s1.2-.3,2.14-.24l.62,0h.06a10.47,10.47,0,0,1,1.12.19l.39.07.6.11,1,.1a13.37,13.37,0,0,0,1.79,0l.5-.06.4,0h0l.63-.12.46-.09c.41-.09.77-.19,1.1-.29a3.79,3.79,0,0,0,.4-.12h0a4.65,4.65,0,0,0,.49-.17,6.68,6.68,0,0,0,1.78-.92,2.59,2.59,0,0,0,.23-.19,2.07,2.07,0,0,0,.64-.87l0-.17h0v-.07h0A3.76,3.76,0,0,0,37,153a10.18,10.18,0,0,0-.32-2.36,4,4,0,0,0-.56-1.18,4.56,4.56,0,0,0-.27-.39,1.58,1.58,0,0,0-.12-.15l-.1-.12,0,.1c.3,1.26.32,3.15-2,3.75l-.18.05-.22.05-1.1.23-1.1.22-.4.07-.46.08h0a18.59,18.59,0,0,1-2.08.22l-.7,0-.45,0a12.63,12.63,0,0,1-2.34-.35c-.33-.08-.66-.15-1-.26a16.76,16.76,0,0,1-2.5-1.05,19,19,0,0,1-2-1.17.57.57,0,0,0-.83.73c.42.89,1.27,2,1.86,3,.88,1.51,1.17,2.8-1.46,2.8-2,0,4.79,6.64.79,6.64-.8,0-.68.56-.18,1.37.23.37.53.78.87,1.22l.93,1.19c.32.4.63.8.88,1.17.73,1.06,1,1.86,0,1.87H21.9c-1,0-.74,1.3.06,2.83a14,14,0,0,0,1.44,2.16,11.21,11.21,0,0,0,.79.88l.38.16.26.12a10.08,10.08,0,0,0,2.53.77,4.88,4.88,0,0,0,.73.06,5,5,0,0,0,1.95-.43l.1,0,.5-.21.07,0,.33-.15,1.1-.46.54-.21.56-.23.34-.13.06,0a8,8,0,0,0,1.56-.87,2.35,2.35,0,0,0,.8-.87,1.09,1.09,0,0,0,.07-.4,14.57,14.57,0,0,0-.12-1.81C35.26,172.16,34.47,172.48,33.64,172.78Z"/><path class="cls-4" d="M85.36,78.74l-1.26,4.4.14,0c1.36.22,2.57.33,3.48.39v-6H87.6l-.84.45C86.6,78.14,86.07,78.41,85.36,78.74Z"/><path class="cls-5" d="M175,149.48h0a24.64,24.64,0,0,0-1.78-7.88c-.75-1.92-1.6-3.55-2.24-4.85l-.29-.61a1,1,0,0,1-.07-.15l-.23-.53a.61.61,0,0,1-.05-.12c-.08-.19-.14-.37-.2-.54l0-.11c0-.17-.08-.33-.1-.48-.18-1.65-3.52-2.87-4.82-5.26s-1.72-5.6-2.82-7.19q-.15-.24-.3-.51h0c0-.45.08-.89.11-1.31,0-.1,0-.2,0-.29,0-.35.05-.7.07-1,0-.07,0-.14,0-.21,0-.4,0-.79.06-1.16v-.15c0-.32,0-.64,0-.94a1.85,1.85,0,0,0,0-.23c0-.69,0-1.34,0-2v-.19c0-.26,0-.52,0-.76v-.12l-.06-.82s0-.07,0-.1c0-.23,0-.45-.07-.66,0,0,0-.09,0-.14-.06-.48-.12-.92-.2-1.33,0,0,0-.07,0-.11s-.07-.36-.11-.53v0c0-.19-.08-.37-.13-.54l0-.07q-.06-.23-.12-.42l0-.08q-.15-.45-.3-.81l0-.07c-.05-.11-.1-.23-.15-.33h0a3,3,0,0,0-.16-.31l0,0a2.55,2.55,0,0,0-.14-.24l0,0a3.83,3.83,0,0,0-.32-.42l0,0-.15-.16h0l-.15-.14,0,0-.12-.1h0l-.12-.09h0l-.11-.06h0l-.18-.09h0l-.06,0h-.11c-.48-.44-.95-.88-1.43-1.34l-.44-.43-1-1-.51-.52c-.3-.31-.61-.62-.91-.94l-.51-.54-.9-1-.48-.54c-.31-.33-.61-.67-.91-1l-.44-.5-.94-1.07-.37-.43-1-1.16-.27-.33L148,92.92l-.06-.08c-1.24-1.5-2.38-2.93-3.39-4.21l-.07-.09-.88-1.14-.11-.14c-.27-.35-.53-.69-.78-1l-.06-.09-1-1.33,5.52-9.57L154.24,63h0L152,61.72l3.37-5.84h0a1.85,1.85,0,0,0,.18-.44h0a1.54,1.54,0,0,0,.06-.43.43.43,0,0,0,0-.05s0-.06,0-.09,0-.11,0-.16,0-.15-.05-.23,0-.07,0-.11a3,3,0,0,0-.24-.52l-.06-.12s0,0-.05-.07a4.26,4.26,0,0,0-.46-.57l-.05-.06-.14-.12a6.55,6.55,0,0,0-.54-.48.39.39,0,0,0-.1-.08l-.11-.09-.62-.44-.21-.14c-.29-.19-.6-.38-.94-.58s-.68-.37-1-.53l-.28-.14c-.23-.12-.47-.22-.69-.32l-.18-.07-.2-.08-.18-.06a4.72,4.72,0,0,0-.54-.17l-.05,0h0a4,4,0,0,0-.53-.1h-.08l-.4,0a2.16,2.16,0,0,0-.62.09.76.76,0,0,0-.2.06,1.54,1.54,0,0,0-.17,0l-.11.08a1.4,1.4,0,0,0-.26.16l-.14.13a2,2,0,0,0-.31.38l-.93,1.61-2.45,4.23L140.42,55,127.67,77.11c-.44-.3-.89-.62-1.36-1s-1.07-.76-1.59-1.11l-.49-.31c-.37-.24-.75-.47-1.11-.68l-.5-.29-1.23-.66-.27-.14c-.49-.24-1-.46-1.43-.67l-.38-.16c-.34-.15-.68-.29-1-.41l-.38-.15-1.06-.38-.16,0c-.85-.29-1.6-.49-2.25-.65,0-.44.08-.89.11-1.34,0-.08,0-.16,0-.24,0-.57.05-1.16.05-1.74,0-.88,0-1.73,0-2.57,0,0,0-.07,0-.1,0-.81,0-1.59-.08-2.36,0-.53-.05-1-.08-1.57l0-.47c-.78-12.38-3.81-20.23-9.74-24.47q-.47-.35-1-.66l-.34-.22-.11-.06A17.65,17.65,0,0,0,101,33.56a27.55,27.55,0,0,0-9.31-1.86h-.23c-.64,0-1.29,0-2,0s-1.27,0-1.89,0h-.19q-.89,0-1.74.12c-.45,0-.88.09-1.32.15l-.19,0a25.21,25.21,0,0,0-5,1.13,18.61,18.61,0,0,0-2.88,1.29l-.22.11c-.24.13-.46.27-.68.41s-.65.41-1,.64l-.26.19a15,15,0,0,0-1.31,1.08h0v0A19.79,19.79,0,0,0,68,43.64a7,7,0,0,1-.15-.69v0c0-.23-.07-.46-.1-.69s0-.41,0-.62,0-.62,0-.93v-.13c0-.35.06-.69.12-1A5,5,0,0,1,68,39l0-.09c.05-.14.1-.29.17-.44l0-.06a4.41,4.41,0,0,1,.28-.52h0a6.58,6.58,0,0,1,.4-.57l0,0a8.38,8.38,0,0,1,.57-.66,1.07,1.07,0,0,1,.14-.16q.34-.36.75-.72a1.54,1.54,0,0,1,.19-.17c.11-.1.22-.2.34-.29l.4-.33,0,0C75,32,81.07,29.11,87,26.38l1.14-.52.65-.29.92-.42.32-.14.06,0,3-1.37.58-.26c1-.48,2.06-1,3.09-1.44l.49-.23c1-.49,2-1,3-1.48l.38-.19c1-.52,2.06-1,3-1.58h0l1.15-.62,1.14-.62L94.86,8.12h0l-1,.62h0C92.91,9.28,92,9.8,91,10.31l-.68.35c-.72.38-1.44.76-2.18,1.13L87,12.37l-1.69.83-2,.93-1,.46-.39.19-3.57,1.7-.65.31c-1.26.62-2.52,1.24-3.75,1.89l-.18.09c1.15-1.18,2.3-2.38,3.41-3.58l.24-.26,1.28-1.41.39-.44q.75-.84,1.44-1.68h0L81.78,10,71.15,5,71,5.22l-.53.69,0,0c-.49.64-1,1.27-1.51,1.89l-.46.54c-.39.45-.77.9-1.17,1.35l-.66.73-1,1.11-.89,1-.9,1c-.38.39-.75.79-1.12,1.18l-1,1-.51.55-1.35,1.49c-.21.23-.41.47-.62.71l-.63.74-.35.4c-.16.19-.31.39-.46.58l-.39.48-.86,1.11c-.05.07-.09.14-.14.2a32.14,32.14,0,0,0-2.49,3.87q-.15.26-.27.51c-.11.21-.24.41-.34.63a21.08,21.08,0,0,0-1.42,3.82.43.43,0,0,0,0,.05,15.6,15.6,0,0,0-.35,1.57s0,.05,0,.08A15,15,0,0,0,51.34,34a1,1,0,0,0,0,.17c0,.45,0,.89,0,1.35v.24c0,.09,0,.18,0,.26,0,.54,0,1.08.11,1.63v0c0,.47.13.93.21,1.37,0,.15.07.3.1.44.06.31.14.61.22.91l.12.43c.1.32.2.63.31.93,0,.1.07.21.11.31.15.37.31.74.48,1.09.08.18.17.35.26.52l.27.49c.13.23.26.46.4.68L54,45q.35.52.72,1A15.1,15.1,0,0,0,56,47.59a20.1,20.1,0,0,0,4.2,3.29,27.5,27.5,0,0,0,4.74,4.78l0,0c-.22,1.82-.37,3.75-.47,5.8,0,.1,0,.2,0,.3,0,.79-.07,1.59-.09,2.42s0,1.94,0,3c0,.58,0,1.16,0,1.74a2.45,2.45,0,0,1,0,.27c0,.44.06.88.1,1.31-.64.16-1.39.36-2.24.65l-.16,0-1.06.38-.38.15c-.33.12-.67.26-1,.41l-.38.16c-.47.21-.94.43-1.43.67l-.27.14-1.23.66-.5.29c-.37.21-.74.44-1.11.68l-.49.31c-.53.35-1.06.71-1.59,1.11-.36.27-.72.51-1.06.75l-.46.31h0l-12.71-22-2.26,1.3-3.67-6.34h-.13a1.59,1.59,0,0,0-.35-.22l-.05,0h0a2.6,2.6,0,0,0-.47-.16,3.15,3.15,0,0,0-.52,0,4.81,4.81,0,0,0-1.6.33l-.25.09-.08,0h0a16.32,16.32,0,0,0-2,1h0l-.78.48-.23.15-.48.33-.24.17-.38.29-.22.19-.13.11-.16.16-.14.13-.06.07-.23.27-.18.23s-.06.07-.08.11,0,.09-.07.13a3,3,0,0,0-.24.53s0,0,0,.06,0,.19-.06.28,0,.1,0,.15,0,.07,0,.11,0,0,0,.06a1.37,1.37,0,0,0,.05.4s0,0,0,0a1.92,1.92,0,0,0,.18.43l3.37,5.84-2.26,1.3L37.23,85l-.9,1.17-.09.12-.72.93c-.06.08-.13.16-.19.25-.24.3-.48.62-.74.94l-.23.3c-.26.34-.54.69-.83,1.05l-.2.25-1,1.31,0,.06c-.78,1-1.59,1.94-2.44,3l-.22.25-1,1.23-.37.42-.94,1.07c-.14.17-.3.34-.45.51-.29.33-.59.66-.89,1s-.33.37-.5.55l-.87.94-.53.56c-.29.31-.59.61-.89.92l-.52.53-1,1-.45.44c-.47.45-1,.9-1.42,1.33h-.11l-.06,0h0l-.08,0h0l-.09,0,0,0-.09.06h0l-.12.09,0,0-.11.09,0,0-.14.13h0l-.13.15,0,0-.14.18h0l-.15.23,0,0-.12.21,0,.06q-.07.13-.15.3l0,0c0,.09-.09.19-.13.3a.59.59,0,0,1,0,.08c0,.12-.09.23-.14.36v0c0,.13-.09.28-.14.42l0,.1c0,.13-.07.25-.11.39l0,.1q-.06.24-.12.51s0,.06,0,.09-.07.31-.1.48l0,.15c0,.2-.07.4-.1.61h0c0,.21-.06.44-.09.67a1.1,1.1,0,0,1,0,.18l-.06.61s0,.09,0,.15c0,.25,0,.51-.06.79a.86.86,0,0,1,0,.16l0,.7a1.93,1.93,0,0,1,0,.24c0,.3,0,.6,0,.92s0,.65,0,1v.26q0,.44,0,.9v.19c0,.37,0,.75.06,1.14a1.77,1.77,0,0,0,0,.23c0,.33,0,.67.07,1,0,.1,0,.2,0,.3,0,.43.06.86.11,1.31h0c-.1.18-.2.35-.31.51-1.09,1.59-1.56,4.89-2.81,7.19S9.2,132.55,9,134.2c0,.15-.06.31-.1.48a.49.49,0,0,1,0,.11,5,5,0,0,1-.19.54.61.61,0,0,1,0,.12l-.23.53a1,1,0,0,0-.07.15l-.29.61c-.62,1.26-1.43,2.83-2.17,4.67A24.64,24.64,0,0,0,4,149.47H4a21.5,21.5,0,0,0,.1,3.47v0a3.42,3.42,0,0,0,0,.46l.06.32h0A23.07,23.07,0,0,0,5,157l0,.13c.14.47.3,1,.47,1.43,0,.12.09.25.14.37.2.54.42,1.08.67,1.63s.39.86.59,1.27l.12.23c.16.32.32.64.48.94l.12.21c.16.3.32.59.49.87l.08.14c.18.29.35.58.53.85l.05.07c.18.29.37.56.56.82l0,0a15,15,0,0,0,1.82,2.09c.52.7,1.14,1.49,1.82,2.34l0,0,.39.47,0,.05.05.07.71.83.27.3q.36.42.75.84l.53.57.26.27q.57.6,1.17,1.17l.34.33.58.52,0,0a23.88,23.88,0,0,0,2.2,1.76l.19.13c.42.29.85.54,1.27.78l.2.11v12h0a2.14,2.14,0,0,0,.05.45l0,.13a2.81,2.81,0,0,0,.1.31,1.12,1.12,0,0,1,.05.13l.12.22a3.92,3.92,0,0,0,.37.51l.15.14.17.14a4.74,4.74,0,0,0,.92.61l.2.09.25.11a4.09,4.09,0,0,0,.49.18h0a9.06,9.06,0,0,0,1.34.29h.06a10,10,0,0,0,1.47.1h0c.32,0,.64,0,.95,0h.09a7.93,7.93,0,0,0,.89-.13h.08a7.55,7.55,0,0,0,.85-.22h0a5.17,5.17,0,0,0,.69-.26l.12-.05.06,0a5.54,5.54,0,0,0,.53-.3l.23-.15a3.55,3.55,0,0,0,.47-.4l.11-.09a3.3,3.3,0,0,0,.36-.51,1.59,1.59,0,0,0,.13-.22s0-.08,0-.12a2,2,0,0,0,.11-.32l0-.13a2.22,2.22,0,0,0,0-.45h0v-.66c1.49.58,3,1.11,4.51,1.62l.11,0c.71.24,1.43.48,2.15.7l2.34.73a173.29,173.29,0,0,0,27.11,6c1.49.2,3,.37,4.48.53l1.38.13,3.12.26,1.63.1c1,.06,2,.11,2.93.15l1.64.06c1,0,2,0,3.07,0l1.08,0h.32c1.66,0,3.31,0,5-.09l1.17-.06c1.32-.06,2.64-.13,4-.22L101,200c1.66-.14,3.31-.28,5-.47h.11c1.64-.18,3.26-.4,4.89-.63l1.43-.22c1.31-.2,2.62-.41,3.93-.65l1.14-.2c1.63-.3,3.26-.63,4.88-1l1.13-.25c1.3-.29,2.6-.6,3.9-.92l1.38-.35c1.63-.42,3.25-.85,4.87-1.32l3-.87c1.4-.43,2.79-.87,4.17-1.33l.48-.16c1.39-.48,2.77-1,4.13-1.51l.06,0v.67h0a2.14,2.14,0,0,0,.05.45l0,.13a2.81,2.81,0,0,0,.1.31c0,.05,0,.09.05.13l.12.22a3.17,3.17,0,0,0,.37.51l.15.14.17.14a4.74,4.74,0,0,0,.92.61l.2.09.25.11a4.09,4.09,0,0,0,.49.18h0a9.21,9.21,0,0,0,1.33.29h.07a10,10,0,0,0,1.47.1h0c.33,0,.65,0,1,0h.09a8.28,8.28,0,0,0,.89-.13h.08a7.55,7.55,0,0,0,.85-.22h0a5.17,5.17,0,0,0,.69-.26l.12-.05.06,0a5.54,5.54,0,0,0,.53-.3l.23-.15a3.55,3.55,0,0,0,.47-.4.48.48,0,0,1,.11-.09,3.3,3.3,0,0,0,.36-.51,1.55,1.55,0,0,0,.12-.22.61.61,0,0,0,0-.12,2,2,0,0,0,.11-.32l0-.13a2.22,2.22,0,0,0,0-.45h0v-12c.26-.13.52-.28.78-.44l.66-.43.25-.17a25.84,25.84,0,0,0,2.14-1.71l.08-.07.56-.5.24-.24c.41-.38.8-.78,1.19-1.18l.41-.43q.63-.67,1.23-1.35l.19-.22c.44-.5.86-1,1.25-1.48l0,0q.62-.75,1.14-1.44l.05-.06.26-.34.37-.49h0c.2-.19.4-.39.61-.61h0c.2-.22.4-.45.6-.7h0c.2-.24.39-.49.59-.76l0,0c.19-.26.37-.53.56-.81l.06-.09c.17-.26.34-.54.51-.82l.1-.17c.16-.26.31-.55.47-.83l.14-.25c.15-.28.29-.57.44-.87l.16-.3c.2-.41.39-.83.59-1.27s.47-1.09.67-1.63c0-.12.09-.25.13-.37.18-.48.34-1,.48-1.43l0-.13a23.07,23.07,0,0,0,.71-3.26h0l.06-.32a3.42,3.42,0,0,0,0-.46v0A21.5,21.5,0,0,0,175,149.48ZM21.77,107.24c6.77-6.16,13.43-14.67,17.08-19.42l.75-1,.24-.31c.27-.36.52-.69.73-1l0-.07a2.5,2.5,0,0,1,.22-.24,3.23,3.23,0,0,1,.49-.39,6.09,6.09,0,0,1,.89-.46c.51-.22,1.15-.44,2-.71h0l.14,0c1.22-.42,2.67-.91,4.31-1.65l.91-.43.22-.11.32-.16.35-.19,1-.53c.41-.25.84-.51,1.27-.79.59-.38,1.19-.79,1.82-1.25a30.93,30.93,0,0,1,10.11-5c.23.59.5,1.2.8,1.81A50.76,50.76,0,0,0,68,83.23c.13.63.3,1.37.5,2.22a98.63,98.63,0,0,0,8.57,22A123.42,123.42,0,0,0,90.5,127.62c2,2.53,4.29,5.09,6.71,7.65-.94.06-1.88.12-2.82.15-1.63.06-3.26.1-4.89.1a152.81,152.81,0,0,1-16-.89c-2.7-2-5.24-4.13-7.49-6.13l-1.16-1-.27-.25-.88-.82h0l-1.14-1.08-.8-.77c-1.85-1.8-3.3-3.32-4.21-4.3-.7-.75-1.09-1.19-1.09-1.19.8,3.53,4.36,9.18,8.05,14.35q-5.19-.87-10.32-2.07c-3-2.92-5.32-5.94-6-8.69-2-8.39-1.94-19-1.89-21.81,0-.47,0-.73,0-.73s-.13.28-.19.41a33,33,0,0,0-2.34,7.17c-1-1.82-2.75-12-3-13.68,0-.15,0-.23,0-.23l0,.3c-1,10.2,1.83,31.16,1.83,31.16-1.62-1.93-8.12-22.06-8.12-22.06s.18,3.43,0,10.06c0,.47,0,1,0,1.52h0a17.23,17.23,0,0,1-3.75-6.53s-1.12,4.33,1.87,12.18a97,97,0,0,1-8.17-8.94c-1-1.22-2-2.53-3-3.9A1.26,1.26,0,0,1,21.77,107.24Zm6.15-47.57,1.77-1,.69,1.19-1.77,1Zm-2.65-4.6a1.22,1.22,0,0,1,.14-.24,5.08,5.08,0,0,1,1-.9l.43-.3,1.89,3.28-1.77,1ZM37,59.46l.32-.18L48.57,78.71l-.33.17L48,79l-.91.42c-1.69.74-3.18,1.21-4.47,1.65h0a20,20,0,0,0-1.93.75,9.1,9.1,0,0,0-.88.47c-.18.11-.35.22-.51.34L28.72,64.26l.52-.31.87-.5.09-.05,4.19,3.39h0l-1.51-5,3-1.76.87-.5Zm108.06-3.31,1.78,1-.69,1.19-1.77-1ZM144.68,61h0l3.94,2.28-.07.42-.43,2.74-.1.67-.16,1-8.34,14.45-.3-.21-.21-.12a6.74,6.74,0,0,0-.89-.45c-1.25-.56-2.74-1-4.5-1.63h0c-.6-.22-1.24-.48-1.91-.78l-.91-.43c-.18-.09-.36-.17-.54-.27l11.25-19.49.53.3.87.5Zm3.06-9.4h.12a4,4,0,0,1,1.25.32c.2.08.43.19.65.3l-1.89,3.27-1.78-1ZM127.45,80.5l1,.54.34.19.54.27.9.45c.67.3,1.3.56,1.9.79h0c1,.37,1.82.67,2.59.93s1.4.47,1.92.68a6.34,6.34,0,0,1,.9.43l.21.13.29.23a3.83,3.83,0,0,1,.29.28l.08.09.65.85.37.48.62.81c3.63,4.72,10.36,13.36,17.21,19.59a1.51,1.51,0,0,1,.27.31c-1,1.37-2,2.68-3,3.9a95.33,95.33,0,0,1-8.17,8.94c3-7.85,1.88-12.18,1.88-12.18a17.38,17.38,0,0,1-3.75,6.53h0c0-.54.06-1,0-1.52-.18-6.63,0-10.06,0-10.06s-6.5,20.13-8.12,22.06c0,0,2.83-21,1.83-31.16l0-.3s0,.08,0,.23c-.27,1.63-2,11.86-3,13.68a32.09,32.09,0,0,0-2.43-7.38l-.09-.2s0,.13,0,.36c0,2.11.16,13.36-1.89,22.18-.63,2.72-2.92,5.71-5.88,8.61q-6.14,1.42-12.36,2.41a40.27,40.27,0,0,0,2.49-5.76c.17-.51.31-1,.43-1.48l.09-.37-.24.28c-.2.24-.55.63-1,1.14a62.46,62.46,0,0,1-7.8,7l-3.22.35-2.07.18c.55-1.62,1.44-4.29,2.42-7.36.36-1.14.74-2.33,1.11-3.55.18-.6.37-1.22.55-1.83s.3-1,.44-1.48h0l.22-.76.21-.72c.34-1.21.66-2.39.95-3.5.47-1.85.84-3.51,1.06-4.85.07-.4.12-.78.16-1.11l-3.74,7.32-.5,1-1.35,2.65c-1.6,3.14-3.41,6.71-5.24,10.34-1.94-2.14-3.74-4.27-5.41-6.37A119.37,119.37,0,0,1,79.73,106q-1.52-2.88-2.71-5.53a28.63,28.63,0,0,0,2.42,3.06A16.07,16.07,0,0,0,84,107.12a12.24,12.24,0,0,0,10.94,0,18,18,0,0,0,6-5.27l.45-.61c-.09.22-.2.44-.3.66a99.07,99.07,0,0,1-10.2,17.61,39.63,39.63,0,0,0,8.87-9.8c1.52-2.41,2.83-4.7,4-6.86a65.15,65.15,0,0,0,6.7-18.39,54,54,0,0,0,3.06-8.73c.35-.73.66-1.45.91-2.14a30.9,30.9,0,0,1,10.08,5c.57.42,1.12.79,1.65,1.15ZM30.71,190.59a2.1,2.1,0,0,1-.57.32l-.31.12a6.77,6.77,0,0,1-2.06.29l-.41,0a5.78,5.78,0,0,1-2.08-.44,1.68,1.68,0,0,1-.45-.28v-1.9l.2.08a9.73,9.73,0,0,0,2.33.36l.41,0a9.74,9.74,0,0,0,2.37-.29l.57-.17Zm123.46-4.09a3.1,3.1,0,0,1-.63.29,7,7,0,0,1-1.9.34l-.41,0a7,7,0,0,1-2.38-.39l-.3-.11-.2-.12v-2.46l.5,0a14.54,14.54,0,0,0,2.79-.54,10.14,10.14,0,0,0,2.53-1.13Zm0,4.09a2.5,2.5,0,0,1-.88.44,6.73,6.73,0,0,1-1.65.28h-.41a6.37,6.37,0,0,1-2.38-.41l-.11,0a1.68,1.68,0,0,1-.45-.28v-1.9l.2.08.36.08a9.87,9.87,0,0,0,2.38.3h.41a8.9,8.9,0,0,0,2.53-.45Zm-13.3-43.28a7.5,7.5,0,0,0-1.36,2.67h0a12.63,12.63,0,0,0-.41,3,6.43,6.43,0,0,0,.39,2.33v0l0,.05a4.42,4.42,0,0,0-1.26,1.59,5.13,5.13,0,0,0-.25.69,6.09,6.09,0,0,0-.26,1.72v.15h0v.06h0c0,.34,0,.65,0,1,0,.14,0,.28,0,.42a8.38,8.38,0,0,0,.19,1.2,5.42,5.42,0,0,0,.47,1.23,6,6,0,0,0-.48,1.08,6.53,6.53,0,0,0-.26,1.91,7.22,7.22,0,0,0,1.6,4.75,6.35,6.35,0,0,0,.84.82,15.15,15.15,0,0,0-.09,1.65,3.87,3.87,0,0,0,.31,1.53,5,5,0,0,0,1.73,2.05,13.05,13.05,0,0,0,3.23,1.64h0v6.15c-3.08,1.23-6.26,2.26-9.43,3.23q-2.44.74-4.91,1.41l-.73-3.2-1.66,3.83a169.53,169.53,0,0,1-19.84,3.87,148.16,148.16,0,0,1-40.84-.36l-1.66-6.28-1,5.89a170.84,170.84,0,0,1-19.26-4.29l-.77-4.66-1.47,4c-2.57-.76-5.14-1.57-7.67-2.49v-7.45l0,0c3.43-1.26,4.33-2.6,4.33-3.87a16,16,0,0,0-.18-2.34,5.19,5.19,0,0,0,2.54-4.88c0-2.36-1.23-2.71-.82-3.22a5.11,5.11,0,0,0,.78-2.82v0c0-.25,0-.5,0-.78a6.54,6.54,0,0,0-.06-.81,3.5,3.5,0,0,0-.85-1.93c-.11-.11-.21-.21-.32-.3a1.49,1.49,0,0,1-.46-1.72,7.68,7.68,0,0,0-.08-4.52,4.55,4.55,0,0,0-.4-1,13.6,13.6,0,0,0-3-3.57,17.54,17.54,0,0,0-1.5-1.58v-15l2.48.85c1.35.45,2.88.93,4.56,1.44l.19,1,.17.92.54,2.78,1-2.29.35-.81.36-.83c.66.19,1.34.38,2,.56,3.72,1,8,2,12.62,2.92q3.56.69,7.41,1.26c4,.59,8.23,1.06,12.61,1.35,2.64.17,5.35.27,8.09.29h1.9c2.39,0,4.76-.1,7.08-.23l1.7-.11,1.69-.12,2.13-.2c.6,0,1.2-.12,1.8-.18l1.49-.16.26,1,.28,1.06.07.26.39,1.45.44,1.67.3,1.12.24-1.46.25-1.53.25-1.5.12-.75.11-.63.17-1,.83-.12c3-.42,5.8-.9,8.51-1.42,3.63-.7,7-1.47,10.1-2.25l.28.93.27.89,0,.15.83,2.73.54-3.29.16-1,.12-.72,0-.32.23-.07c3.59-1,6.69-1.92,9.2-2.75,2.11-.7,3.78-1.31,5-1.76v13.9a27.87,27.87,0,0,0-2.53,2.09A16.9,16.9,0,0,0,140.87,147.31Zm-116,35a10.14,10.14,0,0,0,2.53,1.13,14.58,14.58,0,0,0,2.78.54l.5,0v2.47a3,3,0,0,1-.5.23l-.06,0a7,7,0,0,1-2.31.36l-.41,0a6.41,6.41,0,0,1-2.26-.48,2.18,2.18,0,0,1-.27-.15ZM154.17,145.2v.39a2.5,2.5,0,0,1-.88.44,6.73,6.73,0,0,1-1.65.28h-.41a6.37,6.37,0,0,1-2.38-.41l-.11,0a2.06,2.06,0,0,1-.39-.22V129.71l.14,0,.36.08a9.87,9.87,0,0,0,2.38.3h.41a8.9,8.9,0,0,0,2.53-.45Zm-123.53.44a2,2,0,0,1-.5.27l-.31.12a6.77,6.77,0,0,1-2.06.29h-.16l-.25,0a5.78,5.78,0,0,1-2.08-.44,1.68,1.68,0,0,1-.45-.28v-15.9l.2.08a9.73,9.73,0,0,0,2.33.36l.41,0a9.74,9.74,0,0,0,2.37-.29l.5-.14Zm125-22.51c0,.53-.45,1-1.17,1.36l-.13.07-.13,0v2.89a3.1,3.1,0,0,1-.63.29,7,7,0,0,1-1.9.34l-.41,0a7,7,0,0,1-2.38-.39l-.3-.11-.2-.12v-2.81l-.06,0v-.14c-.88-.37-1.44-.89-1.44-1.48s.51-1.07,1.31-1.44a8.39,8.39,0,0,1,6.13,0C155.1,122.06,155.6,122.57,155.6,123.13Zm-123.46,0c0,.59-.56,1.11-1.43,1.48v.14l-.07,0v2.82a3,3,0,0,1-.5.23l-.06,0a7,7,0,0,1-2.31.36l-.41,0a6.41,6.41,0,0,1-2.26-.48,2.18,2.18,0,0,1-.27-.15v-2.89l-.13,0-.13-.07c-.72-.36-1.17-.83-1.17-1.36s.5-1.07,1.3-1.44a7.6,7.6,0,0,1,3.07-.58,7.6,7.6,0,0,1,3.07.58C31.64,122.06,32.14,122.57,32.14,123.13Zm138.31,20.66c-2.3-1.78-4.81-2.63-5.7-3.44-1.81-1.62-1.36-6.86-1.36-6.86a5.72,5.72,0,0,0-3.33,1c.5-2.6.91-5,1.23-7.13a17.78,17.78,0,0,0,1.24,3,12.68,12.68,0,0,0,3.51,3.76c.33.26.79.62,1,.86a16.53,16.53,0,0,0,1.56,3.82A39.68,39.68,0,0,1,170.9,144ZM62.88,48.66a15.82,15.82,0,0,1-2-3.63A13,13,0,0,1,60,41.32c0-.3,0-.6,0-.9a13.88,13.88,0,0,1,.27-2.66l.06-.31c0-.15.06-.29.1-.44h0a17.05,17.05,0,0,1,4.64-8c3.4-3.46,8.35-6.24,13.8-8.89,5.09-2.49,10.6-4.89,15.68-7.79l1,.82,4.25,3.44c-6.58,3.35-14.34,6.53-20.89,9.78A58.62,58.62,0,0,0,69.37,32a17.76,17.76,0,0,0-3.24,3.17,8.45,8.45,0,0,0-1.72,3.72,13.31,13.31,0,0,0-.2,2.32,13,13,0,0,0,.44,3.35,13.47,13.47,0,0,0,.83,2.31,17.07,17.07,0,0,0,.88,1.64c0,.13-.06.27-.1.4-.12.47-.24,1-.35,1.45s-.19.86-.27,1.3a21.51,21.51,0,0,1-2.23-2.36C63.23,49.11,63.05,48.89,62.88,48.66Zm27.21,55.62a1.5,1.5,0,0,1-.59.13h0a1.65,1.65,0,0,1-.64-.15A6,6,0,0,1,87,102.81a28.45,28.45,0,0,1-3.82-5.64q-.44-.83-.87-1.68c-.35-.69-.69-1.4-1-2.1s-.52-1.12-.77-1.68C80,90.46,79.45,89.22,79,88.06l-.6-1.51c-.13-.32-.24-.63-.36-.93l0-.05c-.08-.21-.15-.41-.23-.6s-.12-.32-.17-.47c.56.22,1.11.41,1.67.58,1,.31,2,.55,2.93.75l.29.06.33.07.94.17a38.3,38.3,0,0,0,4.24.45l.62,0h1.13l1.06,0H91A34.51,34.51,0,0,0,100,85c.49-.16,1-.33,1.46-.52l-.18.5-.23.6,0,.06c-.5,1.29-1.08,2.77-1.74,4.32-.56,1.34-1.18,2.72-1.83,4.09a2,2,0,0,0-.1.21c-.7,1.45-1.44,2.87-2.2,4.17l-.56.94c-.52.83-1,1.6-1.54,2.26a11.51,11.51,0,0,1-2.08,2.17A4.07,4.07,0,0,1,90.09,104.28Zm16.54-30.44c.48,1.06,1.66,2.14,1.66,3.16a8.32,8.32,0,0,1-.39,2.45,8.85,8.85,0,0,1-3,4.26c.05-.15.1-.28.15-.41.26-.75.41-1.21.41-1.21l1.2-3.64-3.35,1.85a26.81,26.81,0,0,1-8.39,2.85l-1.27-4.41a15.27,15.27,0,0,0,5.07,1.64,1.87,1.87,0,0,0,.34,0c1.84-.29,5-2.94,5.57-4l.72-1.36L104,75.7a24.53,24.53,0,0,1-5.19,1.9,2.68,2.68,0,0,1-1.86-.54,43,43,0,0,0,5.6-2c2.14-1.08,2.17-2.62,2.17-2.68v-.69L94,75.17v1.31l-2.71,1.07.12.06h-.12v6l-.28,0-1,0h-.47l-1.49,0-.32,0c-.91-.06-2.12-.17-3.48-.39l-.14,0-.5-.09a26.36,26.36,0,0,1-7.88-2.75l-3.41-2,1.25,3.78v0c.05.15.24.71.55,1.58a8.72,8.72,0,0,1-3.19-5A7.84,7.84,0,0,1,70.71,77c0-1,1.17-2.1,1.65-3.16,1.9-4.18,5.25-4.13,8-3.43,1.59.41,4,.89,5.87,1.27a17.2,17.2,0,0,0,6.63,0c1.93-.38,4.28-.86,5.87-1.27C101.39,69.71,104.74,69.66,106.63,73.84Zm-1.86-33.62a30.7,30.7,0,0,0-30.55,0,24.05,24.05,0,0,1,8.6-5,21,21,0,0,1,13.46,0A23.91,23.91,0,0,1,104.77,40.22ZM17.71,127.4c.32,2.16.73,4.53,1.23,7.13a5.75,5.75,0,0,0-3.34-1s.46,5.24-1.35,6.86c-.9.81-3.41,1.66-5.71,3.44l-.43.23a38.83,38.83,0,0,1,2.26-5.21A16.53,16.53,0,0,0,11.93,135c.24-.24.7-.6,1-.86a12.68,12.68,0,0,0,3.51-3.76A17.78,17.78,0,0,0,17.71,127.4ZM14,167.19q-.69-.91-1.2-1.62l-.49-.68c-.2-.29-.36-.51-.46-.67l-.12-.17,0,0a39.69,39.69,0,0,1-2.31-4.53,31.3,31.3,0,0,1-1.22-3.27,16,16,0,0,1-.85-4.7,7.91,7.91,0,0,1,.06-1,6.92,6.92,0,0,1,.84-2.76,3.29,3.29,0,0,1,1-1,7.15,7.15,0,0,1,2.28-1c1-.28,2.11-.52,3.37-.88h0a6,6,0,0,0,1.06-.46c.66-.34,1.49-.83,2.38-1.37l1.56-1,.57-.37c.45-.28.88-.57,1.28-.83l.19-.12-.06,3,0,1.42h0v.1h0a6.54,6.54,0,0,0,.78,3.05,5.21,5.21,0,0,0,1,1.31,4.44,4.44,0,0,0,.76.57l.16.08a6,6,0,0,0,2.79.71h.48l1.3,0,1,0,.5,0,.4,0,.58-.05.52-.08.3-.06.22-.08h.05a1.84,1.84,0,0,0,.25-.09,1.82,1.82,0,0,0,.28-.13,1.3,1.3,0,0,0,.4-.41,1.35,1.35,0,0,0,.26-.68l.05-.78.1-1.3.27.25a13.91,13.91,0,0,1,1,1.12c.1.11.19.23.28.34l.1.12a1.58,1.58,0,0,1,.12.15,4.56,4.56,0,0,1,.27.39,4,4,0,0,1,.56,1.18A10.18,10.18,0,0,1,37,153a3.76,3.76,0,0,1-.17,1.23h0v.07h0l0,.17a2.07,2.07,0,0,1-.64.87,2.59,2.59,0,0,1-.23.19,6.68,6.68,0,0,1-1.78.92,4.65,4.65,0,0,1-.49.17h0a3.79,3.79,0,0,1-.4.12c-.33.1-.69.2-1.1.29l-.46.09-.63.12h0l-.4,0-.5.06a13.37,13.37,0,0,1-1.79,0l-1-.1-.6-.11-.39-.07a10.47,10.47,0,0,0-1.12-.19h-.06l-.62,0c-.94-.06-2.06-.07-2.14.24s1.05.95,1.9,1.36l.06,0,.18.07a8,8,0,0,0,1.19.42,1.66,1.66,0,0,1,.21.06c.45.09.9.16,1.36.22h0a15.18,15.18,0,0,0,2.78.09l.5,0,.4,0,.72-.09.38-.07,1.1-.23.4-.1c.49-.12.92-.25,1.32-.38s.84-.28,1.17-.42h0c.37-.15.64-.28.87-.4l.4-.22a2.06,2.06,0,0,0,.33.33,2.14,2.14,0,0,1,.44.56,3,3,0,0,1,.22.91c0,.13,0,.26,0,.41v0h0v.14a8,8,0,0,1-.19,1.83,2.15,2.15,0,0,1-.24.66,4.39,4.39,0,0,1-1.85,1.36,14.16,14.16,0,0,1-2.5.89l-.4.1c-.34.09-.7.17-1.1.25L31,165l-.4.06-.27,0-.23,0a7.93,7.93,0,0,1-2.78-.27l-.14,0s-1.38-.23-2.65-.35l-.58,0c-.83-.05-1.51,0-1.56.17s.34.4.89.68c.36.18.8.37,1.25.56.76.32,1.56.62,2.1.82l.66.24h0a8,8,0,0,0,2.63.24h.15l.5,0,.4,0c.38-.05.75-.11,1.1-.18l.54-.1.56-.12.4-.1a21.12,21.12,0,0,0,2.5-.8,19.17,19.17,0,0,0,2-.86,2.76,2.76,0,0,1,.19.42,3.54,3.54,0,0,1,.15,1.11,4.72,4.72,0,0,1-.57,2.39.71.71,0,0,0-.24.06s-.59.29-1.48.69c-.68.31-1.55.68-2.5,1l-.06,0-.34.13-1.1.39c-.36.13-.73.24-1.1.35l-.22.07-.11,0h-.07a3.11,3.11,0,0,1-.5.05c-.73,0-1.81,0-2.78,0-1.17,0-2.18,0-2.25.27s1.19.94,2.25,1.4c.73.32,1.35.56,1.35.56a2.18,2.18,0,0,0,.88,0l.55-.12.5-.12h.07l.33-.09c.37-.1.74-.21,1.1-.33s.74-.23,1.1-.36l.34-.13.06,0c.83-.3,1.62-.62,2.31-.92a14.57,14.57,0,0,1,.12,1.81,1.09,1.09,0,0,1-.07.4,2.35,2.35,0,0,1-.8.87,8,8,0,0,1-1.56.87l-.06,0-.34.13-.56.23-.54.21-1.1.46-.33.15-.07,0-.5.21-.1,0a5,5,0,0,1-1.95.43,4.88,4.88,0,0,1-.73-.06,10.08,10.08,0,0,1-2.53-.77l-.26-.12-.38-.16-.72-.35-.07,0a13.62,13.62,0,0,1-1.44-.88,22.54,22.54,0,0,1-2.51-2.06l-.11-.11a41.92,41.92,0,0,1-2.91-3l-1.25-1.48ZM163,169.69l-.39.43a40.45,40.45,0,0,1-3.27,3.4,22.18,22.18,0,0,1-2.25,1.82,13.62,13.62,0,0,1-1.44.88l-.07,0-.72.35-.38.16-.26.12a10.2,10.2,0,0,1-2.53.77,4.88,4.88,0,0,1-.73.06,5.07,5.07,0,0,1-2-.43l-.1,0-.5-.21-.06,0-.33-.15-1.11-.46-.53-.21-.56-.22-.34-.14-.07,0a6.53,6.53,0,0,1-2-1.22,2,2,0,0,1-.38-.52,1.35,1.35,0,0,1-.08-.4,14.71,14.71,0,0,1,.09-1.49c0-.13,0-.23,0-.32.7.3,1.49.62,2.31.92l.07,0,.34.13,1.09.36q.56.18,1.11.33l.33.09h.06l.5.12.48.1a2.25,2.25,0,0,0,1,0s.59-.22,1.28-.53c1.05-.45,2.33-1.09,2.24-1.41s-1.12-.27-2.24-.22a21.29,21.29,0,0,1-2.7.07l-.09,0-.5-.13-.06,0-.33-.1c-.37-.11-.74-.22-1.11-.35l-1.09-.4-.34-.12-.07,0c-2.16-.84-3.95-1.73-4-1.74a.6.6,0,0,0-.23-.06,4.62,4.62,0,0,1-.57-2.39,2.94,2.94,0,0,1,.29-1.45.35.35,0,0,0,0-.08,22.31,22.31,0,0,0,4.44,1.66l.41.1.56.12.53.1c.36.07.73.12,1.11.17l.39.05.5,0c.26,0,.51.05.78.06a6.13,6.13,0,0,0,1.7-.2l.31-.11.6-.22c.61-.22,1.43-.53,2.19-.84.45-.19.88-.38,1.24-.55.56-.28.94-.53.9-.67s-.7-.19-1.53-.13l-.61.06c-1,.11-2.11.28-2.79.39l-.61.11a3.28,3.28,0,0,1-1.35.16l-.83-.14-.5-.08-.39-.08c-.39-.07-.76-.14-1.11-.22l-1.09-.25-.41-.11c-3.07-.81-4-1.6-4.23-1.94l0-.06a2,2,0,0,1-.33-.78,8.05,8.05,0,0,1-.17-1.66c0-.1,0-.2,0-.31h0c0-.15,0-.28,0-.41a2.74,2.74,0,0,1,.22-.91.35.35,0,0,0,.05-.08,1.51,1.51,0,0,1,.39-.48,3.43,3.43,0,0,0,.33-.33,5,5,0,0,0,.56.3c.2.1.44.2.72.32s.8.31,1.32.48c.35.11.74.22,1.16.32l.41.1c.34.08.71.16,1.09.23s.72.13,1.11.18l.39.06.5.06c.47.05.94.1,1.45.13a4,4,0,0,0,1.34-.12h0l.06,0c.17-.06.73-.26,1.42-.53.4-.15.84-.33,1.27-.51l.14,0c1.09-.47,2.06-1,2-1.19s-1.1-.24-2.14-.14l-.57.05-1.59.21h-.06l-.57.13a7.32,7.32,0,0,1-.94.12,6.12,6.12,0,0,1-1.21,0l-.64-.1-.5-.07-.39-.07-.47-.1-.64-.13c-.4-.1-.76-.2-1.09-.3l-.32-.09-.09,0-.26-.1a7.78,7.78,0,0,1-1.81-.89,2.46,2.46,0,0,1-1.15-1.41h0A4.28,4.28,0,0,1,142,153a10.3,10.3,0,0,1,.33-2.36,4.94,4.94,0,0,1,.87-1.63l.07-.09.11-.13a14.66,14.66,0,0,1,1.67-1.76l.14,1.33.05.56v0a1.34,1.34,0,0,0,.14.64h0a1.6,1.6,0,0,0,.41.51l.15.11a2.3,2.3,0,0,0,.75.31l.19,0,.16,0,.33.06.62.08.39,0,.5,0c.6,0,1.35.07,2.34.1h.45a6.08,6.08,0,0,0,2.79-.71l.16-.08a5,5,0,0,0,1.49-1.37,6.14,6.14,0,0,0,.95-2.19,7.11,7.11,0,0,0,.15-1.37v-.1h0l0-1.42-.06-3,.18.12,1.29.83.18.12.39.25c.92.58,1.85,1.16,2.66,1.64.47.28.9.52,1.28.71a5.67,5.67,0,0,0,1.06.46h0c1.12.32,2.15.55,3,.79a11.2,11.2,0,0,1,1.75.58,3.82,3.82,0,0,1,1.68,1.31,6.45,6.45,0,0,1,1,3,7.91,7.91,0,0,1,.06,1,15.43,15.43,0,0,1-.67,4.11c-.05.19-.12.39-.19.59a36.33,36.33,0,0,1-2.14,5.25c-.39.79-.74,1.44-1,1.89l-.3.52-.08.13h0l0,.08c-.14.21-.51.75-1,1.48s-1.41,1.9-2.36,3.07Z"/><path class="cls-5" d="M89.49,111.77h0l-7.23-3.38a36.9,36.9,0,0,0,7.23,10.2,36.52,36.52,0,0,0,7.24-10.2Z"/><path class="cls-5" d="M85,75.17,74.33,71.73v.69c0,.06,0,1.6,2.17,2.68a43,43,0,0,0,5.6,2,2.7,2.7,0,0,1-1.87.54,24.39,24.39,0,0,1-5.18-1.9L73.67,75l.72,1.36c.55,1,3.73,3.68,5.57,4a1.87,1.87,0,0,0,.34,0,15.23,15.23,0,0,0,5.06-1.64c.71-.33,1.24-.6,1.4-.68l.84-.45.12-.06L85,76.48Z"/><path class="cls-5" d="M79.83,180.08c-2.76,0-5.51-.14-8.27-.32l.15-4.18c0-1,.08-2.06.11-3.09l.06-1.58.06-1.59c.12-3.49.25-7,.37-10.49a32.7,32.7,0,0,1-4.82-1.65v22.27c-.83-.08-1.66-.13-2.49-.22v4a173.69,173.69,0,0,0,22.76,1.82v-5C85.12,180.13,82.47,180.12,79.83,180.08Z"/><path class="cls-5" d="M62.93,154.86c1.51.36,3,.68,4.56,1s3.26.66,4.89,1l.51.09c1.78.32,3.57.62,5.36.88,3.17.48,6.34.89,9.51,1.19v-6a175.42,175.42,0,0,1-24.83-2.13Z"/><path class="cls-5" d="M112.48,152.73v20.69l-.42-.49c-.33-.4-.67-.79-1-1.18s-.69-.8-1-1.21-.69-.79-1-1.2c-1-1.2-2-2.42-3-3.64a40.41,40.41,0,0,1-1,5.26c0,.19-.1.37-.16.56l.75.82,1.1,1.17,1.49,1.59c.74.79,1.47,1.58,2.21,2.36l2.13-2v3.8c1.33-.17,2.66-.35,4-.56.11-2.8.21-5.6.32-8.4l0-.87.06-1.64.06-1.64c.14-3.69.28-7.37.41-11.06,0-.69,0-1.37.08-2.06l0-1-1.19.17C115,152.38,113.75,152.57,112.48,152.73Z"/><path class="cls-5" d="M104,154.52c-.24-1.67-.51-3.07-.73-4.1s-.47-1.89-.49-2l-.22.06c-1.54.47-3.09.91-4.63,1.33a42.5,42.5,0,0,1,1.13,5.92c.08.58.14,1.2.21,1.84-.47-.57-.93-1.15-1.39-1.72l-2.43-3c-1.38,1.21-2.75,2.4-4.13,3.58l.07.08q4,4.65,8,9.12a41.36,41.36,0,0,1-1.25,8c-.16.61-.33,1.22-.53,1.83s-.44,1.26-.68,1.89a29.37,29.37,0,0,1-2.87,5.49,25.33,25.33,0,0,1-2.85,3.53c-.23.25-.46.51-.71.75L93.28,190l0,.05c.25-.24.49-.5.74-.75a36.4,36.4,0,0,0,7-10.23,39,39,0,0,0,1.54-3.9c.2-.6.38-1.22.56-1.84s.31-1.19.45-1.8c.08-.36.15-.72.23-1.08a41.75,41.75,0,0,0,.73-6.42c0-.3,0-.6,0-.91a52.76,52.76,0,0,0-.21-5.49C104.27,156.5,104.15,155.47,104,154.52Z"/></g></g></svg>