<?xml version="1.0" standalone="no"?>
<!DOCTYPE svg PUBLIC "-//W3C//DTD SVG 20010904//EN"
 "http://www.w3.org/TR/2001/REC-SVG-20010904/DTD/svg10.dtd">
<svg version="1.0" xmlns="http://www.w3.org/2000/svg"
 width="880.000000pt" height="880.000000pt" viewBox="0 0 880.000000 880.000000"
 preserveAspectRatio="xMidYMid meet">
<metadata>
Created by potrace 1.11, written by Peter Selinger 2001-2013
</metadata>
<g transform="translate(0.000000,880.000000) scale(0.100000,-0.100000)"
fill="#000000" stroke="none">
<path d="M6260 7698 c-91 -27 -178 -54 -195 -58 -138 -39 -286 -80 -313 -89
-18 -5 -35 -10 -37 -11 -75 -14 -71 -7 -49 -87 18 -68 31 -118 38 -153 3 -14
14 -68 26 -120 12 -52 23 -104 25 -115 1 -11 5 -33 9 -50 11 -61 56 -342 61
-390 3 -27 7 -66 10 -85 8 -64 13 -114 20 -180 4 -36 9 -69 12 -75 10 -19 -53
50 -77 85 -13 19 -27 37 -30 40 -4 3 -31 37 -60 75 -68 88 -119 152 -147 183
-12 13 -41 49 -65 80 -24 32 -49 63 -56 71 -8 8 -39 46 -70 85 -31 39 -69 84
-84 100 l-27 30 -63 -55 c-35 -31 -76 -66 -92 -80 -16 -13 -34 -29 -41 -36 -6
-6 -45 -40 -86 -75 -41 -34 -85 -72 -97 -83 -13 -11 -33 -28 -45 -38 -12 -11
-46 -40 -76 -65 -58 -51 -72 -62 -125 -106 -20 -16 -36 -32 -36 -35 0 -3 12
-19 26 -36 14 -16 47 -55 72 -85 26 -30 67 -77 92 -105 25 -28 63 -73 85 -100
22 -27 47 -56 56 -64 8 -9 60 -68 115 -131 54 -63 108 -124 119 -136 11 -12
45 -50 75 -85 53 -62 127 -143 163 -181 9 -10 15 -18 13 -18 -2 0 13 -17 33
-38 31 -32 120 -132 184 -206 31 -35 169 -187 219 -241 26 -27 48 -59 49 -70
1 -27 -2 -100 -6 -155 -4 -40 -7 -70 -20 -195 -5 -50 -16 -138 -21 -175 -3
-19 -7 -48 -10 -65 -2 -16 -6 -41 -9 -55 -3 -14 -8 -43 -11 -65 -2 -22 -7 -53
-11 -70 -3 -16 -6 -37 -8 -45 -1 -8 -7 -40 -13 -70 -6 -30 -14 -66 -16 -80 -2
-14 -14 -68 -26 -120 -12 -52 -23 -102 -25 -110 -2 -8 -4 -15 -5 -15 -1 0 -3
-10 -6 -23 -6 -32 -53 -204 -61 -222 -4 -8 -8 -19 -8 -25 -1 -5 -5 -17 -8 -25
-3 -8 -18 -53 -32 -100 -30 -92 -136 -368 -180 -465 -43 -96 -176 -358 -196
-387 -11 -14 -19 -30 -19 -34 0 -11 -180 -298 -212 -339 -5 -5 -41 -55 -81
-110 -67 -92 -217 -277 -256 -316 -47 -47 -180 -195 -181 -202 -1 -7 173 -194
352 -376 l77 -79 78 80 c43 44 89 92 103 107 98 105 140 151 170 189 19 24 56
67 82 95 26 29 48 55 48 58 0 3 10 17 21 30 49 55 200 263 287 394 51 77 96
145 100 151 17 24 33 50 39 64 3 8 14 26 23 40 101 149 320 597 435 890 123
314 244 725 301 1025 2 11 6 31 9 45 3 14 8 39 10 55 3 17 7 41 10 55 2 14 7
39 9 55 3 17 7 44 10 60 21 124 32 206 41 298 3 28 7 72 10 97 22 227 24 288
24 605 -1 301 -4 442 -14 590 -4 55 -8 125 -10 155 -2 30 -4 55 -5 55 0 0 -3
36 -5 80 -4 98 -14 217 -21 269 -3 21 -7 59 -9 85 -3 25 -7 61 -10 79 -3 17
-7 44 -9 60 -2 15 -7 43 -10 62 -3 19 -8 51 -10 70 -3 19 -7 46 -10 60 -3 13
-8 42 -11 65 -10 68 -15 94 -40 214 -20 93 -52 236 -69 306 -1 6 -11 45 -21
88 -10 42 -21 77 -24 76 -3 0 -80 -23 -171 -51z"/>
<path d="M2 7039 l3 -323 50 -13 c28 -7 59 -15 70 -17 11 -2 40 -9 65 -15 25
-5 60 -13 79 -16 19 -3 38 -8 41 -10 4 -3 25 -7 46 -11 22 -3 75 -14 119 -24
44 -10 94 -21 110 -23 17 -3 37 -8 45 -11 8 -3 29 -7 45 -10 17 -2 77 -14 135
-26 58 -12 116 -24 130 -26 14 -3 41 -9 60 -14 20 -5 53 -12 75 -16 65 -10 80
-12 80 -14 0 -1 11 -4 25 -6 14 -3 70 -14 125 -26 55 -11 109 -22 120 -23 11
-2 22 -4 25 -5 3 -1 10 -3 15 -4 6 -1 28 -6 50 -10 54 -11 70 -14 140 -26 33
-5 69 -12 80 -14 25 -5 105 -19 125 -22 37 -5 87 -14 105 -17 27 -6 92 -17
135 -22 19 -3 46 -7 60 -10 14 -3 45 -8 70 -10 25 -3 52 -8 60 -10 8 -2 38 -7
65 -11 28 -3 59 -8 70 -10 10 -2 37 -6 60 -9 22 -3 51 -8 65 -10 22 -4 54 -9
140 -20 14 -2 43 -6 65 -9 76 -11 110 -16 155 -21 25 -3 56 -8 70 -10 70 -11
89 -14 140 -20 51 -5 80 -9 162 -20 18 -3 56 -7 84 -10 28 -3 60 -7 72 -10 11
-2 52 -7 89 -11 37 -4 79 -8 93 -10 14 -1 52 -5 85 -8 33 -4 76 -9 95 -11 28
-4 160 -16 180 -17 30 -2 30 4 30 482 0 264 -3 480 -7 481 -5 0 -66 2 -138 4
-177 4 -521 15 -625 21 -47 2 -139 6 -205 10 -66 3 -154 7 -195 9 -41 2 -75 4
-75 4 0 1 -40 4 -90 7 -104 6 -185 11 -270 18 -33 3 -96 7 -140 10 -79 6 -159
12 -265 22 -30 3 -73 7 -95 8 -111 10 -194 18 -229 22 -21 2 -60 6 -85 9 -137
13 -171 16 -190 20 -12 2 -53 7 -91 10 -38 3 -80 8 -92 10 -12 3 -52 7 -88 11
-36 3 -76 7 -90 9 -14 2 -43 6 -65 9 -22 3 -62 8 -90 11 -99 11 -141 16 -170
21 -35 7 -51 9 -125 18 -30 4 -68 10 -85 13 -16 2 -49 6 -72 8 -23 2 -51 6
-63 10 -12 4 -38 8 -58 10 -46 5 -109 14 -142 20 -27 5 -62 11 -128 20 l-42 6
2 -322z"/>
<path d="M8729 7166 c-2 -2 -33 -7 -68 -10 -36 -4 -67 -8 -70 -10 -3 -2 -31
-7 -62 -10 -31 -4 -67 -9 -80 -12 -33 -6 -77 -13 -119 -18 -19 -2 -51 -7 -70
-10 -66 -11 -95 -16 -145 -21 -27 -4 -65 -10 -84 -13 l-34 -8 -1 -379 c-1
-210 3 -386 7 -392 5 -7 6 -13 1 -13 -11 0 -11 -211 0 -228 4 -7 4 -12 -1 -12
-4 0 -7 -172 -6 -383 2 -210 3 -389 3 -397 0 -8 -1 -208 -3 -445 -1 -241 2
-435 7 -442 4 -7 5 -13 0 -13 -11 0 -11 -211 0 -228 4 -7 4 -12 -1 -12 -4 0
-8 -85 -7 -190 0 -104 -2 -190 -6 -190 -7 0 -10 4 -95 105 -27 33 -54 65 -60
71 -5 7 -26 31 -44 54 -19 23 -40 48 -45 54 -6 6 -28 32 -49 58 -21 26 -43 53
-50 60 -7 7 -24 29 -39 48 -14 19 -42 53 -62 75 -19 22 -39 45 -43 50 -8 10
-230 278 -268 324 -11 13 -26 29 -32 37 -7 7 -13 16 -13 20 0 4 -6 12 -14 18
-7 6 -44 49 -82 96 -38 47 -75 91 -81 98 -7 8 -18 22 -24 33 -15 29 -32 19
-35 -22 -2 -18 -5 -50 -7 -69 -4 -32 -7 -50 -22 -135 -11 -60 -16 -91 -20
-115 -6 -47 -44 -224 -81 -380 -20 -85 -38 -164 -41 -175 -2 -13 14 -38 48
-75 29 -30 97 -103 152 -163 55 -59 116 -124 136 -145 30 -31 204 -219 286
-307 11 -12 54 -60 95 -106 41 -46 93 -103 115 -126 l40 -43 65 63 c61 57 172
161 246 230 l31 27 -1 -115 c-1 -63 3 -115 7 -115 5 0 5 -5 1 -12 -12 -20 -11
-348 2 -359 6 -5 21 -6 35 -4 13 3 48 7 77 11 29 3 61 7 71 9 10 2 42 6 72 10
30 4 63 8 74 10 11 2 43 6 70 9 54 7 81 12 135 21 19 4 47 8 62 9 38 3 42 9
44 74 5 161 21 590 39 1047 3 72 7 238 10 370 3 132 8 287 10 345 10 230 15
341 20 480 5 140 12 332 20 550 2 58 7 177 10 265 3 88 8 201 10 250 2 50 6
180 10 290 3 110 8 268 11 350 3 83 6 180 7 218 l2 67 -31 0 c-17 0 -33 -2
-35 -4z"/>
<path d="M739 6307 c0 -17 -1 -825 -1 -1795 l-1 -1762 -76 5 c-97 6 -179 13
-258 20 -35 4 -64 3 -64 -2 -4 -28 -3 -626 1 -631 6 -8 6 -8 75 -17 28 -4 61
-8 75 -11 14 -2 46 -6 73 -9 26 -2 58 -7 70 -10 12 -2 42 -7 67 -10 25 -3 54
-7 65 -9 12 -2 50 -7 85 -11 36 -3 76 -8 90 -10 50 -6 136 -17 170 -21 19 -2
55 -6 80 -9 25 -3 68 -8 95 -11 65 -7 121 -13 165 -18 19 -3 67 -7 105 -10 39
-4 86 -9 105 -11 19 -3 69 -7 110 -10 41 -3 91 -7 110 -10 19 -2 67 -6 105 -9
39 -3 97 -8 130 -11 33 -4 87 -8 120 -10 33 -2 89 -6 125 -9 95 -8 363 -25
475 -31 69 -4 225 -12 400 -20 135 -6 513 -17 650 -19 l120 -1 3 402 2 402
-324 -2 c-194 -1 -322 -6 -318 -11 3 -5 -3 -6 -13 -2 -10 4 -221 9 -469 11
-248 3 -505 7 -571 9 -335 12 -519 20 -685 30 -36 2 -96 5 -135 6 -38 1 -77 3
-85 6 -17 4 -16 -8 -6 274 3 91 8 237 11 325 3 88 8 232 11 320 4 88 7 188 8
222 0 35 3 63 6 63 3 0 6 37 7 83 6 327 12 606 18 747 3 91 8 212 10 270 2 58
7 179 10 270 3 91 7 217 10 280 9 263 17 467 19 494 1 28 -2 31 -64 48 -112
32 -203 59 -265 80 -98 32 -229 79 -250 88 -25 12 -143 60 -172 71 -21 8 -23
5 -24 -24z"/>
</g>
</svg>
